<?xml version="1.0" encoding="utf-8"?>
<!-- Generator: Adobe Illustrator 22.1.0, SVG Export Plug-In . SVG Version: 6.00 Build 0)  -->
<svg version="1.1" id="Layer_1" xmlns:svgjs="http://svgjs.com/svgjs"
	 xmlns="http://www.w3.org/2000/svg" xmlns:xlink="http://www.w3.org/1999/xlink" x="0px" y="0px" viewBox="0 0 512 512"
	 style="enable-background:new 0 0 512 512;" xml:space="preserve">
<style type="text/css">
	.st0{fill:#575757;}
</style>
<g>
	<g>
		<g>
			<path class="st0" d="M458.2,117.5L264.7,2.4c-5.4-3.2-12.1-3.2-17.5,0L53.8,117.5c-5.2,3.1-8.3,8.7-8.3,14.7v65.7
				c0,138.4,80,264.8,204.4,313c4,1.5,8.4,1.5,12.3,0c124.1-48.1,204.4-174.2,204.4-313v-65.7C466.5,126.2,463.4,120.6,458.2,117.5z
				 M340.3,217.6l-107,107c-6.7,6.7-17.5,6.7-24.1,0l-37.5-37.5c-6.7-6.7-6.7-17.5,0-24.1c6.7-6.7,17.5-6.7,24.1,0l25.5,25.5
				l94.9-94.9c6.7-6.7,17.5-6.7,24.1,0C347,200.2,347,211,340.3,217.6z"/>
		</g>
	</g>
</g>
</svg>
