<svg id="Layer_1" enable-background="new 0 0 50 50" height="512" viewBox="0 0 50 50" width="512" xmlns="http://www.w3.org/2000/svg"><g><g><g><g enable-background="new"><path d="m36.084 17.6107c-.6732-.3913-1.6054-.3362-2.6341.2577-2.0443 1.1803-3.695 4.0415-3.6883 6.3905.0033 1.1662.4152 1.9872 1.0796 2.3734l9.8287 5.7119c-.6645-.3862-1.0763-1.2072-1.0796-2.3734-.0067-2.349 1.644-5.2102 3.6883-6.3905 1.0288-.594 1.961-.649 2.6341-.2578z" fill="#272e3a"/></g></g><g><g enable-background="new"><path d="m17.0003 28.6505c-.6732-.3913-1.6054-.3362-2.6341.2577-2.0443 1.1803-3.695 4.0415-3.6883 6.3905.0033 1.1662.4152 1.9872 1.098 2.3937l9.8287 5.7119c-.6828-.4065-1.0946-1.2275-1.098-2.3937-.0067-2.349 1.644-5.2102 3.6883-6.3905 1.0288-.594 1.961-.649 2.6341-.2578z" fill="#272e3a"/></g></g><path d="m46.2096 18.2437c.0537-.0069.1107-.0142.1665-.0216.0951-.0128.191-.025.2887-.0378.0594-.0074.1179-.0147.177-.0226.0967-.0123.1921-.024.2848-.0358.057-.0069.1104-.0137.1645-.0201.0857-.0103.1662-.0201.2418-.029.052-.0059.0994-.0113.1451-.0167.0623-.0069.1151-.0123.1631-.0167.037-.0039.07-.0069.0967-.0088.052-.0039.0971-.0069.1024-.0039h-.0002.0003l-16.0036-9.3002-.0008-.0005h-.0012c-.0005-.0005-.001-.0005-.0015-.0005 0 0-.0012 0-.0019-.0005 0 0-.0014 0-.0021 0-.0008 0-.0017 0-.0025 0 0 0-.0018 0-.0028 0-.001-.0005-.002-.0005-.0031-.0005-.0083 0-.0197.0005-.0337.001-.0112.0005-.0381.0039-.0527.0049-.0269.002-.0595.0049-.0967.0083-.048.0049-.1005.0103-.1631.0172-.0461.0054-.0925.0103-.1449.0167-.0745.0088-.1524.0182-.2368.028-.0603.0079-.1188.0147-.1825.0226-.0774.0098-.1545.0196-.2349.0299-.0814.0103-.1592.0201-.2411.0304-.0625.0083-.1212.0157-.1828.024-.0958.0123-.1871.024-.2772.0363-.0436.0054-.0798.0103-.1215.0157-.0945.0128-.185.0245-.2651.0353-.2275.0304-.3884.052-.4193.0564l16.0036 9.3002c.0303-.0039.1935-.0265.4139-.0559.0567-.0074.127-.0167.1913-.025.0751-.0102.1496-.02.2323-.0308z" fill="#f38faa"/><path d="m48.0406 18.0322c0-.0388-2.5353.3043-2.6692.3234l-6.672-2.6795-10.7236 6.6791-4.7638 9.0008-5.77 4.8265.0083 5.4081-.447.2581.0084 1.1493 31.9883-18.4673z" fill="#e34454"/><path d="m17.4501 41.5906-.6587.3803.2202 1.0271.4399-.254z" fill="#272e3a"/><g><path d="m32.2843 20.3537-4.3452 2.7084-4.3174 8.1543 8.3472-5.1303z" fill="#678ac6"/></g><g><path d="m32.2838 20.3546v5.54l-8.6621 5.3218.543-1.0254 7.517-4.6273v-4.83z" fill="#e2e5ef"/></g><g><path d="m33.0063 25.4513 9.6368-5.9203-4.2048-3.0103-5.432 3.3832z" fill="#678ac6"/></g><g><path d="m33.0063 24.752v.6993l9.6368-5.9203-4.2048-3.0103-.4993.3115 3.6761 2.6314z" fill="#e2e5ef"/></g><g><path d="m27.9765 22.3567-16.0036-9.3003 10.7234-6.6817 16.0036 9.3003z" fill="#f38faa"/><path d="m15.8504 12.9967 6.8818-4.2879 12.0899 7.0259-6.8819 4.2878z" fill="#ec5d71"/></g><g><path d="m23.2111 31.355-16.0037-9.3002 4.7655-8.9984 16.0036 9.3003z" fill="#ec5d71"/></g><g><path d="m17.0036 41.8492-16.0036-9.3003.4479-.2586 16.0036 9.3003z" fill="#4c5671"/></g><g><path d="m17.0119 42.9992-16.0037-9.3003-.0082-1.15 16.0036 9.3003z" fill="#383f51"/></g><g><path d="m17.4515 41.5906-16.0036-9.3003-.0104-5.4081 16.0036 9.3003z" fill="#ec5d71"/></g><g><path d="m17.4411 36.1825-16.0036-9.3003 5.7699-4.8274 16.0037 9.3002z" fill="#f38faa"/></g><path d="m7.9978 21.8285 4.2103-7.9499 14.9779 8.7043-4.2104 7.9499z" fill="#678ac6"/><g><path d="m12.7605 14.1996-.5524-.321-4.2103 7.9499 14.9778 8.7043.3167-.598-14.4255-8.3833z" fill="#e2e5ef"/></g><path d="m29.3683 9.0552s-6.5504-2.6958-6.6727-2.6792l16.0037 9.3003c.1222-.0165 6.3148 2.6984 6.6727 2.6792z" fill="#ec5d71"/><path d="m42.3348 16.8381-13.0664-7.5933c-.9375-.3867-2.2217-.917-3.4106-1.3901-.0254-.0098-.0518.001-.0635.0244s-.0029.0518.02.0654l12.96 7.5293c.0039.0024.0078.0039.0127.0054.1016.0273 1.6055.6558 2.5996 1.0718.4277.1787.7734.3232.9043.3765.0059.0024.0127.0034.0186.0034.0186 0 .0361-.0103.0449-.0278.0116-.0235.0028-.0523-.0196-.065z" fill="#678ac6"/><g><path d="m42.1525 16.8703c.0583.0244.1053.0439.1383.0571.0059.0024.0127.0034.0186.0034.0186 0 .0361-.0103.0449-.0278.0117-.0234.0029-.0522-.0195-.0649l-13.0664-7.5933c-.9375-.3867-2.2217-.917-3.4106-1.3901-.0254-.0098-.0518.001-.0635.0244s-.0029.0518.02.0654l.1729.1006c1.1524.4595 2.3773.9653 3.2813 1.3379z" fill="#e2e5ef"/></g><g><g><path d="m24.1617 36.3449c1.2127-.7002 2.1971-.1371 2.2011 1.2543.0039 1.3914-.974 3.0874-2.1868 3.7876-1.2109.6991-2.1953.1361-2.1992-1.2553-.004-1.3915.974-3.0875 2.1849-3.7866z" fill="#e2e5ef"/></g><g><path d="m27.8706 36.6736c.0002.0181.0004.0364.0005.0548.0067 2.3491-1.6459 5.2092-3.6902 6.3895-2.0425 1.1792-3.7058.2335-3.7124-2.1156-.0001-.0184 0-.0367.0001-.0551.0191-2.3386 1.6617-5.1634 3.6882-6.3334 2.0283-1.1711 3.6816-.2491 3.7138 2.0598zm-3.6946 4.7132c1.2127-.7002 2.1907-2.3962 2.1868-3.7876-.0039-1.3915-.9883-1.9545-2.2011-1.2543-1.2109.6991-2.1889 2.3951-2.1849 3.7866.0039 1.3913.9883 1.9544 2.1992 1.2553" fill="#383f51"/></g><g><path d="m43.2835 25.306c1.2127-.7001 2.1971-.1371 2.2011 1.2543.0039 1.3914-.9741 3.0874-2.1868 3.7876-1.2109.6991-2.1953.1361-2.1992-1.2553-.004-1.3915.974-3.0875 2.1849-3.7866z" fill="#e2e5ef"/></g><g><path d="m43.2879 26.699c.5425-.3132.9829-.0613.9847.5611.0018.6225-.4358 1.3812-.9783 1.6944-.5417.3127-.9821.0609-.9838-.5616-.0018-.6225.4358-1.3812.9774-1.6939z" fill="#b3bdd6"/></g><g><path d="m24.1661 37.7379c.5425-.3132.9829-.0614.9847.5611s-.4358 1.3812-.9783 1.6944c-.5417.3128-.9821.0609-.9838-.5616-.0018-.6225.4357-1.3812.9774-1.6939z" fill="#b3bdd6"/></g><g><path d="m46.9924 25.6347c.0002.0182.0004.0364.0004.0548.0067 2.3491-1.6458 5.2092-3.6901 6.3895s-3.7058.2334-3.7124-2.1156c-.0001-.0184 0-.0367.0001-.0551.019-2.3385 1.6599-5.1623 3.6882-6.3334s3.6815-.2491 3.7138 2.0598zm-3.6946 4.7132c1.2127-.7001 2.1907-2.3962 2.1868-3.7876-.0039-1.3915-.9884-1.9545-2.2011-1.2543-1.2109.6991-2.1889 2.3951-2.1849 3.7866.0039 1.3913.9883 1.9544 2.1992 1.2553" fill="#383f51"/></g></g><g><g><path d="m10.2341 35.7247-.0035 1.0922-2.7944-1.6134.0035-1.0921z" fill="#fff"/></g></g><g><g><g><path d="m15.3519 36.8099c.6577.3797 1.1887 1.2994 1.1866 2.0552-.0021.7543-.5366 1.0588-1.1943.6791-.6564-.379-1.1874-1.2986-1.1853-2.0529.0021-.7559.5365-1.0604 1.193-.6814zm-.0066 2.3122c.4546.2624.8243.0517.8258-.4691.0015-.5223-.3659-1.1586-.8205-1.4211-.4533-.2617-.823-.0509-.8245.4714-.0014.5208.3659 1.1572.8192 1.4188" fill="#fff"/></g><g><path d="m15.3507 37.2319c.4546.2624.8219.8988.8205 1.4211-.0015.5208-.3712.7316-.8258.4692-.4533-.2617-.8206-.898-.8192-1.4189.0014-.5223.3712-.7331.8245-.4714z" fill="#ffdc93"/></g></g><g><g><path d="m3.3301 29.831c.6577.3797 1.1887 1.2994 1.1866 2.0552-.0021.7543-.5366 1.0588-1.1943.6791-.6564-.379-1.1874-1.2986-1.1853-2.0529.0022-.7558.5366-1.0603 1.193-.6814zm-.0065 2.3123c.4546.2624.8243.0517.8258-.4691.0015-.5223-.3659-1.1586-.8205-1.4211-.4533-.2617-.823-.0509-.8245.4714-.0015.5208.3659 1.1571.8192 1.4188" fill="#fff"/></g><g><path d="m3.3289 30.2531c.4546.2624.8219.8988.8205 1.4211-.0015.5208-.3712.7316-.8258.4691-.4533-.2617-.8206-.898-.8192-1.4189.0015-.5223.3713-.733.8245-.4713z" fill="#ffdc93"/></g></g></g></g><g><path d="m12.5256 36.0793-6.7683-3.9156-.5952-1.7499 8.3542 4.8261z" fill="#383f51"/></g></g></svg>