<svg height="512" viewBox="0 0 512 512" width="512" xmlns="http://www.w3.org/2000/svg" xmlns:xlink="http://www.w3.org/1999/xlink"><linearGradient id="linear-gradient" gradientUnits="userSpaceOnUse" x1="256" x2="256" y1="65.678" y2="446.322"><stop offset="0" stop-color="#ffaa3b"/><stop offset=".3585" stop-color="#fda136"/><stop offset=".9415" stop-color="#f88929"/><stop offset="1" stop-color="#f78628"/></linearGradient><linearGradient id="linear-gradient-2" gradientUnits="userSpaceOnUse" x1="255.975" x2="255.975" y1="201.691" y2="446.322"><stop offset="0" stop-color="#fff7e9"/><stop offset=".2785" stop-color="#fdf4e5"/><stop offset=".567" stop-color="#f5ebd8"/><stop offset=".8591" stop-color="#e9dbc4"/><stop offset="1" stop-color="#e2d2b7"/></linearGradient><linearGradient id="linear-gradient-3" gradientUnits="userSpaceOnUse" x1="256.026" x2="256.026" y1="379.521" y2="303.099"><stop offset="0" stop-color="#ff5850"/><stop offset="1" stop-color="#f22525"/></linearGradient><g id="Pembroke_welsh_corgi"><path d="m425.741 66.9493c-57.6164 21.2382-101.6031 56.8672-123.9336 77.5828h-.0508a84.9454 84.9454 0 0 0 -30.03-5.486h-31.4536a84.9421 84.9421 0 0 0 -30.03 5.486h-.0516c-22.33-20.7156-66.3172-56.3446-123.9328-77.5828a19.84 19.84 0 0 0 -26.4551 22.1984c9.7008 53.73 32.4766 98.8234 49.0219 126.1484a90.18 90.18 0 0 0 42.707 36.6469l-14.0195 127.575c0 36.8961 53.0484 66.8039 118.4867 66.8039s118.4867-29.9078 118.4867-66.8008l-14.0187-127.5781a90.178 90.178 0 0 0 42.7062-36.6469c16.5453-27.325 39.3211-72.4187 49.0227-126.1484a19.84 19.84 0 0 0 -26.4555-22.1984z" fill="url(#linear-gradient)"/><path d="m374.4613 379.5211c0-.0015-5.6367-51.3-9.7617-88.84l-41.5031-8.1844a73.8367 73.8367 0 0 1 -55.17-47.389l-12.0516-33.4172-12.0531 33.4172a73.8357 73.8357 0 0 1 -55.1688 47.389l-41.503 8.1846-9.7625 88.8367c0 36.8961 53.0484 66.8039 118.4875 66.8039s118.4863-29.9078 118.4863-66.8008z" fill="url(#linear-gradient-2)"/><path d="m229.7976 329.3525v23.9146a26.2541 26.2541 0 0 0 52.5081 0v-23.9146h-.0519a26.254 26.254 0 0 1 -26.2538-26.254 26.2541 26.2541 0 0 1 -26.2541 26.254" fill="url(#linear-gradient-3)"/><g fill="#2b1716"><path d="m205.361 219a14.9142 14.9142 0 0 0 -14.8967 14.8967v10.4889a14.8968 14.8968 0 0 0 29.7935 0v-10.489a14.9143 14.9143 0 0 0 -14.8968-14.8966z"/><path d="m306.5866 219a14.9143 14.9143 0 0 0 -14.8966 14.8966v10.4889a14.8968 14.8968 0 0 0 29.7935 0v-10.4889a14.9142 14.9142 0 0 0 -14.8969-14.8966z"/><path d="m308.4824 296.6969a6.4 6.4 0 0 0 -6.4 6.4 19.8536 19.8536 0 0 1 -39.2836 4.0821 11.1621 11.1621 0 0 0 2.0149-1.9633l14.9968-19.1719a11.1609 11.1609 0 0 0 -8.7937-18.0313h-29.9813a11.1593 11.1593 0 0 0 -8.7906 18.0344l14.9906 19.1688.0032.0031a11.16 11.16 0 0 0 1.9234 1.9031 19.8535 19.8535 0 0 1 -39.2953-4.025 6.4 6.4 0 0 0 -12.8 0 32.6127 32.6127 0 0 0 58.907 19.336 32.6138 32.6138 0 0 0 58.9086-19.336 6.4 6.4 0 0 0 -6.4-6.4z"/></g></g></svg>