<svg id="Flat" height="512" viewBox="0 0 64 64" width="512" xmlns="http://www.w3.org/2000/svg"><path d="m51 46-16-32-28 14 9 19v5h35z" fill="#efefef"/><rect fill="#a8d8ff" height="6.708" rx="1" transform="matrix(.894 -.447 .447 .894 -15.973 15.338)" width="6.708" x="21.146" y="38.146"/><path d="m2 45h2a5.65685 5.65685 0 0 1 8 0 5.65685 5.65685 0 0 0 8 0 5.65685 5.65685 0 0 1 8 0 5.65685 5.65685 0 0 0 8 0 5.65685 5.65685 0 0 1 8 0 5.65685 5.65685 0 0 0 8 0 5.65685 5.65685 0 0 1 8 0h2v17h-60z" fill="#75c1ff"/><g fill="#63a4d9"><path d="m45.105 58.001a5.656 5.656 0 0 1 -3.812-1.63672l1.414-1.41408a3.12423 3.12423 0 0 0 4.58594 0 5.05587 5.05587 0 0 1 7.41406 0l-1.41064 1.418a3.12834 3.12834 0 0 0 -4.58936-.0039 5.01645 5.01645 0 0 1 -3.602 1.6367z"/><path d="m29.105 56.001a5.656 5.656 0 0 1 -3.812-1.63672l1.414-1.41408a3.125 3.125 0 0 0 4.58594 0 5.05429 5.05429 0 0 1 7.41406 0l-1.41064 1.418a3.12834 3.12834 0 0 0 -4.58936-.0039 5.01645 5.01645 0 0 1 -3.602 1.6367z"/><path d="m12.105 58.001a5.656 5.656 0 0 1 -3.812-1.63672l1.414-1.41408a3.12413 3.12413 0 0 0 4.58594 0 5.05587 5.05587 0 0 1 7.41406 0l-1.41064 1.418a3.12824 3.12824 0 0 0 -4.58936-.0039 5.01645 5.01645 0 0 1 -3.602 1.6367z"/></g><rect fill="#c1e3ff" height="6.708" rx="1" transform="matrix(.894 -.447 .447 .894 -12.029 12.046)" width="6.708" x="16.146" y="28.146"/><rect fill="#c1e3ff" height="6.708" rx="1" transform="matrix(.894 -.447 .447 .894 -12.575 19.729)" width="6.708" x="32.146" y="33.146"/><rect fill="#c1e3ff" height="6.708" rx="1" transform="matrix(.894 -.447 .447 .894 -8.631 16.438)" width="6.708" x="27.146" y="23.146"/><path d="m37.6094 12.6953a.5.5 0 0 0 -.14461-.94093l-23.10261-3.69637a.5.5 0 0 0 -.52621.27011l-10.16515 20.33025a.5.5 0 0 0 .67082.67082z" fill="#ff675b"/></svg>