<svg id="Capa_1" enable-background="new 0 0 512 512" height="512" viewBox="0 0 512 512" width="512" xmlns="http://www.w3.org/2000/svg"><g><g><g><path d="m7.5 248.132c49.699 0 49.699 20 99.398 20 49.698 0 49.698-20 99.396-20 49.7 0 49.7 20 99.399 20 49.702 0 49.702-20 99.404-20s49.702 20 99.404 20v240.117h-497.001z" fill="#b1e4f9"/></g><g><path d="m428.86 344.058-260.22 59.3-19.95-87.53-35.69-156.6 108.07-126.4 152.15 67.09 46.37 203.48z" fill="#ecf4ff"/><path d="m428.86 344.058-260.22 59.3-19.95-87.53c15.68-5.78 27.56-13.09 57.6-13.09 49.7 0 49.7 20 99.4 20s49.7-20 99.41-20c5.37 0 10.16.23 14.49.66z" fill="#ddeafb"/><path d="m377.563 118.995 8.615 37.802c-70.613-53.441-154.553-77.64-154.553-77.64s-65.173 58.182-105.654 136.95l-8.617-37.809 4.755-7.618 71.384-114.474c16.359-15.334 27.573-23.379 27.573-23.379s13.601 2.396 34.989 9.128l113.869 72.195z" fill="#ddeafb"/><path d="m220.169 11.453c21.143 4.534 118.559 28.833 195.563 105.348 2.893 2.874 3.526 7.324 1.58 10.908l-8.3 15.285c-2.783 5.124-9.553 6.385-14.022 2.639-62.876-52.711-142.475-80.438-163.272-87.094-3.192-1.022-6.68-.227-9.115 2.077-15.859 15.01-75.584 74.49-109.41 149.24-2.404 5.312-9.053 7.109-13.781 3.697l-14.104-10.179c-3.307-2.386-4.664-6.671-3.302-10.515 36.246-102.325 113.514-166.435 130.604-179.683 2.145-1.663 4.905-2.292 7.559-1.723z" fill="#e28086"/><path d="m235.737 15.28c-17.11 13.27-106.07 86.47-142.31 188.78-.58 1.63-.66 3.33-.32 4.94l-7.79-5.62c-3.31-2.39-4.67-6.67-3.31-10.52 36.25-102.32 113.52-166.43 130.61-179.68 2.14-1.67 4.9-2.29 7.56-1.72 3.37.72 8.69 1.95 15.56 3.82z" fill="#dd636e"/><path d="m235.897 15.32c-.05-.02-.11-.03-.16-.04l.01-.01c.42-.32.41-.26.15.05z" fill="#dd636e"/><path d="m219.391 304.288c41.279-4.748 81.548-13.926 120.807-27.533-4.748-41.279-12.614-77.718-26.221-116.978-41.279 4.748-82.859 10.096-122.119 23.703 4.748 41.28 13.926 81.549 27.533 120.808z" fill="#407093"/></g><path d="m504.5 439.779c-49.702 0-49.702-20-99.404-20s-49.702 20-99.404 20c-49.7 0-49.7-20-99.399-20-49.698 0-49.698 20-99.396 20-49.699 0-49.699-20-99.398-20v-33.249-62.575c49.699 0 49.699 20 99.398 20 49.698 0 49.698-20 99.396-20 49.7 0 49.7 20 99.399 20 49.702 0 49.702-20 99.404-20s49.702 20 99.404 20v52.09" fill="#90d8f9"/></g><g><path d="m319.752 153.492c-1.151-3.321-4.458-5.397-7.943-4.995-41.628 4.788-82.812 14.174-122.406 27.897-3.32 1.151-5.396 4.453-4.995 7.943 4.789 41.631 14.174 82.815 27.897 122.406 1.056 3.046 3.921 5.044 7.082 5.044.285 0 .573-.017.861-.05 41.629-4.788 82.812-14.174 122.406-27.897 3.32-1.151 5.396-4.453 4.995-7.943-4.788-41.627-14.174-82.811-27.897-122.405zm-12.226 10.63c3.429 10.25 6.552 20.608 9.381 31.047l-111.877 25.498c-1.973-10.634-3.646-21.322-4.998-32.046 34.892-11.671 70.993-19.899 107.494-24.499zm-82.995 131.993c-6.656-19.899-12.188-40.194-16.57-60.731l112.682-25.681c4.95 20.408 8.758 41.095 11.382 61.914-34.892 11.669-70.993 19.897-107.494 24.498z"/><path d="m504.5 432.278c-23.397 0-34.814-4.594-46.9-9.458-12.879-5.183-26.197-10.542-52.5-10.542-14.563 0-26.649 1.656-38.036 5.211-3.954 1.234-6.158 5.44-4.924 9.395 1.235 3.955 5.443 6.159 9.395 4.924 10.032-3.132 20.384-4.529 33.565-4.529 23.397 0 34.813 4.594 46.9 9.458 12.879 5.183 26.197 10.542 52.5 10.542 4.142 0 7.5-3.358 7.5-7.5s-3.358-7.501-7.5-7.501z"/><path d="m338.933 427.85c-9.943 3.062-20.196 4.428-33.243 4.428-23.397 0-34.813-4.594-46.9-9.458-12.879-5.183-26.197-10.542-52.5-10.542-26.296 0-39.612 5.359-52.489 10.542-12.086 4.864-23.502 9.458-46.901 9.458-23.397 0-34.813-4.594-46.9-9.458-12.879-5.183-26.197-10.542-52.5-10.542-4.142 0-7.5 3.358-7.5 7.5s3.358 7.5 7.5 7.5c23.398 0 34.814 4.594 46.9 9.458 12.879 5.183 26.197 10.542 52.5 10.542 26.304 0 39.622-5.36 52.501-10.543 12.084-4.863 23.498-9.457 46.889-9.457 23.397 0 34.814 4.594 46.9 9.458 12.879 5.183 26.197 10.542 52.5 10.542 14.411 0 26.376-1.618 37.658-5.092 3.958-1.219 6.179-5.417 4.96-9.375-1.219-3.959-5.416-6.178-9.375-4.961z"/><path d="m504.5 336.458c-9.656 0-18.006-.789-25.532-2.412-8.286-1.783-14.642-4.34-21.371-7.047-7.841-3.155-15.851-6.373-26.849-8.41l-14.257-62.55c16.075 1.229 25.558 5.044 35.507 9.046 7.018 2.823 14.275 5.743 23.81 7.794 8.575 1.85 17.959 2.749 28.691 2.749 4.142 0 7.5-3.358 7.5-7.5s-3.358-7.5-7.5-7.5c-9.656 0-18.006-.789-25.532-2.412-8.285-1.783-14.641-4.34-21.37-7.047-11.511-4.631-23.389-9.404-44.578-10.364l-19.938-87.476c3.335 1.779 7.185 2.395 10.976 1.674 4.938-.938 9.145-4.009 11.543-8.427l8.295-15.281c3.529-6.479 2.344-14.628-2.88-19.817-78.953-78.452-179.849-103.191-199.274-107.353-4.832-1.035-9.838.106-13.726 3.126-10.874 8.43-49.084 39.81-84.235 89.698-2.386 3.386-1.575 8.065 1.811 10.451 3.385 2.385 8.064 1.575 10.451-1.811 33.95-48.183 70.707-78.376 81.17-86.487.395-.307.888-.416 1.387-.309 18.705 4.007 115.863 27.827 191.846 103.326.523.52.638 1.343.274 2.011l-8.3 15.29c-.313.578-.803.779-1.159.847-.369.07-.919.06-1.451-.386-63.396-53.142-142.934-81.163-165.804-88.486-5.794-1.852-12.142-.405-16.559 3.777-17.432 16.497-76.958 76.184-111.089 151.598-.282.625-.771.87-1.132.966-.353.093-.883.123-1.426-.27l-14.099-10.169c-.612-.441-.866-1.24-.621-1.936 7.827-22.102 18.229-44.022 30.92-65.151 2.132-3.551.983-8.159-2.568-10.291-3.55-2.134-8.158-.983-10.291 2.568-13.206 21.987-24.04 44.821-32.202 67.873-2.449 6.935.011 14.788 5.985 19.101l14.092 10.165c2.884 2.085 6.291 3.17 9.758 3.17 1.437 0 2.884-.187 4.308-.565 3.729-.992 6.931-3.213 9.165-6.258l9.816 43.072c-6.371 1.067-13.253 1.583-21.162 1.583-23.398 0-34.813-4.595-46.899-9.459-6.812-2.742-13.854-5.577-22.998-7.62-8.806-1.965-18.457-2.92-29.503-2.92-4.142 0-7.5 3.358-7.5 7.5s3.358 7.5 7.5 7.5c9.934 0 18.516.837 26.234 2.56 7.946 1.776 14.125 4.263 20.666 6.896 12.879 5.184 26.196 10.544 52.5 10.544 8.967 0 17.05-.638 24.499-1.937l12.976 56.94c-9.339 3.295-20.105 5.827-37.475 5.827-23.398 0-34.813-4.595-46.899-9.459-6.812-2.742-13.854-5.577-22.998-7.62-8.806-1.965-18.457-2.92-29.503-2.92-4.142 0-7.5 3.358-7.5 7.5s3.358 7.5 7.5 7.5c9.934 0 18.516.837 26.234 2.56 7.946 1.776 14.125 4.263 20.666 6.896 12.879 5.184 26.196 10.544 52.5 10.544s39.622-5.36 52.501-10.543c12.084-4.863 23.498-9.457 46.889-9.457h.45c23.094.061 34.438 4.626 46.45 9.458 12.88 5.183 26.198 10.542 52.5 10.542 26.301 0 39.62-5.359 52.499-10.542 12.089-4.864 23.507-9.458 46.911-9.458 23.396 0 34.812 4.593 46.898 9.456 7.018 2.824 14.275 5.744 23.811 7.795 8.575 1.85 17.959 2.749 28.691 2.749 4.142 0 7.5-3.358 7.5-7.5s-3.358-7.502-7.5-7.502zm-151.91-9.457c-12.087 4.863-23.503 9.457-46.9 9.457s-34.814-4.594-46.901-9.457c-12.798-5.149-26.031-10.475-52.029-10.543h-.47c-23.123 0-36.208 4.144-47.785 8.667l-29.675-130.217c33.621-64.314 83.418-114.166 98.926-128.843.449-.424 1.092-.57 1.677-.384 20.343 6.514 86.842 29.883 144.982 73.25l40.525 177.802c-3.072-.177-6.338-.275-9.84-.275-26.308 0-39.629 5.36-52.51 10.543z"/></g></g></svg>