<svg height="512pt" viewBox="0 -33 512 512" width="512pt" xmlns="http://www.w3.org/2000/svg"><path d="m512 10.300781v425.515625c0 5.6875-4.613281 10.304688-10.300781 10.304688h-491.398438c-5.6875 0-10.300781-4.617188-10.300781-10.304688v-425.515625c0-5.6875 4.613281-10.300781 10.300781-10.300781h491.398438c5.6875 0 10.300781 4.613281 10.300781 10.300781zm0 0" fill="#e3f4ff"/><path d="m512 10.300781v425.515625c0 5.6875-4.613281 10.304688-10.300781 10.304688h-30.566407c5.6875 0 10.300782-4.617188 10.300782-10.304688v-425.515625c0-5.6875-4.613282-10.300781-10.300782-10.300781h30.566407c5.6875 0 10.300781 4.613281 10.300781 10.300781zm0 0" fill="#bddff4"/><path d="m512 10.300781v55.1875h-512v-55.1875c0-5.6875 4.613281-10.300781 10.300781-10.300781h491.398438c5.6875 0 10.300781 4.613281 10.300781 10.300781zm0 0" fill="#618baa"/><path d="m512 10.300781v55.1875h-30.566406v-55.1875c0-5.6875-4.613282-10.300781-10.300782-10.300781h30.566407c5.6875 0 10.300781 4.613281 10.300781 10.300781zm0 0" fill="#4e7693"/><path d="m150.292969 0v65.488281h-150.292969v-55.1875c0-5.6875 4.613281-10.300781 10.300781-10.300781zm0 0" fill="#fdb659"/><path d="m47.878906 40.390625c-.015625 0-.023437 0-.039062 0h-.109375c-4.265625-.023437-7.707031-3.496094-7.691407-7.761719.023438-4.257812 3.476563-7.691406 7.726563-7.691406h.039063.105468c4.269532.019531 7.710938 3.496094 7.691406 7.761719-.019531 4.253906-3.472656 7.691406-7.722656 7.691406zm0 0" fill="#fd9e28"/><path d="m76.21875 40.472656h-.109375c-4.265625 0-7.722656-3.460937-7.722656-7.726562s3.457031-7.726563 7.722656-7.726563h.109375c4.269531 0 7.726562 3.460938 7.726562 7.726563s-3.457031 7.726562-7.726562 7.726562zm0 0" fill="#fd9e28"/><path d="m104.5625 40.554688c-.011719 0-.023438 0-.035156 0h-.109375c-4.265625-.019532-7.710938-3.496094-7.691407-7.761719.019532-4.257813 3.476563-7.691407 7.726563-7.691407h.035156.109375c4.265625.019532 7.710938 3.496094 7.691406 7.761719-.019531 4.253907-3.476562 7.691407-7.726562 7.691407zm0 0" fill="#fd9e28"/><path d="m437.976562 297.316406h-363.910156c-4.796875 0-8.6875-3.890625-8.6875-8.6875v-71.894531c0-4.796875 3.890625-8.6875 8.6875-8.6875h363.910156c4.796876 0 8.6875 3.890625 8.6875 8.6875v71.894531c0 4.796875-3.886718 8.6875-8.6875 8.6875zm0 0" fill="#43a3f9"/><path d="m446.664062 216.738281v71.894531c0 4.792969-3.890624 8.6875-8.6875 8.6875h-25.195312c4.808594 0 8.691406-3.894531 8.691406-8.6875v-71.894531c0-4.804687-3.886718-8.6875-8.691406-8.6875h25.195312c4.796876 0 8.6875 3.882813 8.6875 8.6875zm0 0" fill="#1685fb"/><path d="m199.199219 189.355469h-123.820313c-4.265625 0-7.726562-3.460938-7.726562-7.726563s3.460937-7.726562 7.726562-7.726562h123.816406c4.269532 0 7.726563 3.460937 7.726563 7.726562.003906 4.265625-3.457031 7.726563-7.722656 7.726563zm0 0" fill="#93c0d1"/><g fill="#1685fb"><path d="m129.101562 252.5 4.367188-4.367188c3.019531-3.015624 3.019531-7.910156 0-10.925781-3.015625-3.019531-7.910156-3.019531-10.925781 0l-4.367188 4.363281-4.367187-4.363281c-3.015625-3.019531-7.90625-3.019531-10.925782 0-3.019531 3.015625-3.019531 7.90625 0 10.925781l4.367188 4.367188-4.367188 4.363281c-3.019531 3.019531-3.019531 7.910157 0 10.929688 1.507813 1.507812 3.484376 2.261719 5.464844 2.261719 1.976563 0 3.953125-.753907 5.460938-2.261719l4.367187-4.367188 4.363281 4.367188c1.511719 1.507812 3.488282 2.261719 5.464844 2.261719 1.976563 0 3.957032-.753907 5.464844-2.261719 3.015625-3.019531 3.015625-7.910157 0-10.929688zm0 0"/><path d="m193.394531 252.5 4.367188-4.367188c3.015625-3.015624 3.015625-7.910156 0-10.925781-3.019531-3.019531-7.910157-3.019531-10.929688 0l-4.363281 4.363281-4.367188-4.363281c-3.015624-3.019531-7.910156-3.019531-10.925781 0-3.019531 3.015625-3.019531 7.90625 0 10.925781l4.363281 4.367188-4.363281 4.363281c-3.019531 3.019531-3.019531 7.910157 0 10.929688 1.507813 1.507812 3.484375 2.261719 5.460938 2.261719 1.976562 0 3.957031-.753907 5.464843-2.261719l4.363282-4.367188 4.367187 4.367188c1.507813 1.507812 3.484375 2.261719 5.464844 2.261719 1.976563 0 3.953125-.753907 5.460937-2.261719 3.019532-3.019531 3.019532-7.910157 0-10.929688zm0 0"/><path d="m257.6875 252.5 4.367188-4.367188c3.015624-3.015624 3.015624-7.910156 0-10.925781-3.019532-3.019531-7.910157-3.019531-10.929688 0l-4.363281 4.363281-4.367188-4.363281c-3.015625-3.019531-7.910156-3.019531-10.925781 0-3.019531 3.015625-3.019531 7.90625 0 10.925781l4.363281 4.367188-4.363281 4.363281c-3.019531 3.019531-3.019531 7.910157 0 10.929688 1.507812 1.507812 3.484375 2.261719 5.460938 2.261719 1.976562 0 3.957031-.753907 5.464843-2.261719l4.363281-4.367188 4.367188 4.367188c1.507812 1.507812 3.484375 2.261719 5.464844 2.261719 1.976562 0 3.953125-.753907 5.460937-2.261719 3.019531-3.019531 3.019531-7.910157 0-10.929688zm0 0"/><path d="m321.980469 252.5 4.363281-4.367188c3.019531-3.015624 3.019531-7.910156 0-10.925781-3.015625-3.019531-7.90625-3.019531-10.925781 0l-4.367188 4.363281-4.367187-4.363281c-3.015625-3.019531-7.90625-3.019531-10.925782 0-3.019531 3.015625-3.019531 7.90625 0 10.925781l4.363282 4.367188-4.363282 4.363281c-3.019531 3.019531-3.019531 7.910157 0 10.929688 1.507813 1.507812 3.484376 2.261719 5.464844 2.261719 1.976563 0 3.953125-.753907 5.460938-2.261719l4.367187-4.367188 4.367188 4.367188c1.507812 1.507812 3.484375 2.261719 5.464843 2.261719 1.976563 0 3.953126-.753907 5.460938-2.261719 3.019531-3.019531 3.019531-7.910157 0-10.929688zm0 0"/></g><path d="m437.976562 408.390625h-363.910156c-4.796875 0-8.6875-3.890625-8.6875-8.6875v-71.894531c0-4.800782 3.890625-8.691406 8.6875-8.691406h363.910156c4.796876 0 8.6875 3.890624 8.6875 8.691406v71.894531c0 4.796875-3.886718 8.6875-8.6875 8.6875zm0 0" fill="#27e6fc"/><path d="m446.664062 327.804688v71.894531c0 4.796875-3.890624 8.6875-8.6875 8.6875h-25.195312c4.808594 0 8.691406-3.890625 8.691406-8.6875v-71.894531c0-4.792969-3.886718-8.6875-8.691406-8.6875h25.195312c4.796876 0 8.6875 3.894531 8.6875 8.6875zm0 0" fill="#06c7f4"/><path d="m129.101562 363.570312 4.367188-4.363281c3.019531-3.019531 3.019531-7.910156 0-10.929687-3.015625-3.015625-7.910156-3.015625-10.925781 0l-4.367188 4.367187-4.367187-4.367187c-3.015625-3.015625-7.90625-3.015625-10.925782 0-3.019531 3.019531-3.019531 7.910156 0 10.929687l4.367188 4.363281-4.367188 4.367188c-3.019531 3.015625-3.019531 7.910156 0 10.925781 1.507813 1.511719 3.484376 2.265625 5.464844 2.265625 1.976563 0 3.953125-.757812 5.460938-2.265625l4.367187-4.363281 4.363281 4.363281c1.511719 1.511719 3.488282 2.265625 5.464844 2.265625 1.976563 0 3.957032-.757812 5.464844-2.265625 3.015625-3.015625 3.015625-7.90625 0-10.925781zm0 0" fill="#06c7f4"/><path d="m193.394531 363.570312 4.367188-4.363281c3.015625-3.019531 3.015625-7.910156 0-10.929687-3.019531-3.015625-7.910157-3.015625-10.929688 0l-4.363281 4.367187-4.367188-4.367187c-3.015624-3.015625-7.910156-3.015625-10.925781 0-3.019531 3.019531-3.019531 7.910156 0 10.929687l4.363281 4.363281-4.363281 4.367188c-3.019531 3.015625-3.019531 7.910156 0 10.925781 1.507813 1.511719 3.484375 2.265625 5.460938 2.265625 1.976562 0 3.957031-.757812 5.464843-2.265625l4.363282-4.363281 4.367187 4.363281c1.507813 1.511719 3.484375 2.265625 5.464844 2.265625 1.976563 0 3.953125-.757812 5.460937-2.265625 3.019532-3.015625 3.019532-7.90625 0-10.925781zm0 0" fill="#06c7f4"/><path d="m257.6875 363.570312 4.367188-4.363281c3.015624-3.019531 3.015624-7.910156 0-10.929687-3.019532-3.015625-7.910157-3.015625-10.929688 0l-4.363281 4.367187-4.367188-4.367187c-3.015625-3.015625-7.910156-3.015625-10.925781 0-3.019531 3.019531-3.019531 7.910156 0 10.929687l4.363281 4.363281-4.363281 4.367188c-3.019531 3.015625-3.019531 7.910156 0 10.925781 1.507812 1.511719 3.484375 2.265625 5.460938 2.265625 1.976562 0 3.957031-.757812 5.464843-2.265625l4.363281-4.363281 4.367188 4.363281c1.507812 1.511719 3.484375 2.265625 5.464844 2.265625 1.976562 0 3.953125-.757812 5.460937-2.265625 3.019531-3.015625 3.019531-7.90625 0-10.925781zm0 0" fill="#06c7f4"/><path d="m126.863281 158.453125h-52.796875c-4.796875 0-8.6875-3.890625-8.6875-8.6875v-13.902344c0-4.796875 3.890625-8.6875 8.6875-8.6875h52.796875c4.796875 0 8.6875 3.890625 8.6875 8.6875v13.902344c0 4.796875-3.890625 8.6875-8.6875 8.6875zm0 0" fill="#fdb659"/><path d="m75.425781 109.667969c-4.269531 0-7.773437-3.457031-7.773437-7.726563 0-4.265625 3.414062-7.726562 7.683594-7.726562h.089843c4.265625 0 7.722657 3.460937 7.722657 7.726562 0 4.269532-3.457032 7.726563-7.722657 7.726563zm0 0" fill="#93c0d1"/><path d="m94.957031 109.667969c-4.265625 0-7.773437-3.457031-7.773437-7.726563 0-4.265625 3.414062-7.726562 7.683594-7.726562h.089843c4.265625 0 7.726563 3.460937 7.726563 7.726562 0 4.269532-3.460938 7.726563-7.726563 7.726563zm0 0" fill="#93c0d1"/></svg>