<svg id="Capa_1" enable-background="new 0 0 510.001 510.001" height="512" viewBox="0 0 510.001 510.001" width="512" xmlns="http://www.w3.org/2000/svg" xmlns:xlink="http://www.w3.org/1999/xlink"><linearGradient id="SVGID_1_" gradientUnits="userSpaceOnUse" x1="280.512" x2="167.039" y1="169.611" y2="422.277"><stop offset="0" stop-color="#ff7044"/><stop offset="1" stop-color="#f82814"/></linearGradient><linearGradient id="lg1"><stop offset="0" stop-color="#f82814" stop-opacity="0"/><stop offset="1" stop-color="#c0272d"/></linearGradient><linearGradient id="SVGID_2_" gradientTransform="matrix(.707 .707 -.707 .707 266.078 -68.704)" gradientUnits="userSpaceOnUse" x1="199.015" x2="30.014" xlink:href="#lg1" y1="262.433" y2="380.434"/><linearGradient id="SVGID_3_" gradientUnits="userSpaceOnUse" x1="58.663" x2="164.761" y1="90.184" y2="90.184"><stop offset="0" stop-color="#8a7889"/><stop offset="1" stop-color="#6e566e"/></linearGradient><linearGradient id="lg2"><stop offset="0" stop-color="#6e566e" stop-opacity="0"/><stop offset=".8228" stop-color="#59465a" stop-opacity=".866"/><stop offset="1" stop-color="#564357"/></linearGradient><linearGradient id="SVGID_4_" gradientUnits="userSpaceOnUse" x1="158.802" x2="96.643" xlink:href="#lg2" y1="74.712" y2="41.3"/><linearGradient id="SVGID_5_" gradientUnits="userSpaceOnUse" x1="87.492" x2="157.468" xlink:href="#lg2" y1="143.781" y2="170.07"/><linearGradient id="SVGID_6_" gradientTransform="matrix(.707 .707 -.707 .707 266.078 -68.704)" gradientUnits="userSpaceOnUse" x1="190.969" x2="92.791" xlink:href="#lg1" y1="319.958" y2="240.77"/><linearGradient id="SVGID_7_" gradientTransform="matrix(.707 .707 -.707 .707 266.078 -68.704)" gradientUnits="userSpaceOnUse" x1="282.822" x2="161.08" xlink:href="#lg1" y1="344.084" y2="238.961"/><linearGradient id="SVGID_8_" gradientTransform="matrix(.707 .707 -.707 .707 266.078 -68.704)" gradientUnits="userSpaceOnUse" x1="348.127" x2="245.234" xlink:href="#lg1" y1="333.714" y2="258.374"/><linearGradient id="SVGID_9_" gradientTransform="matrix(.707 .707 -.707 .707 266.078 -68.704)" gradientUnits="userSpaceOnUse" x1="412.555" x2="335.243" xlink:href="#lg1" y1="313.998" y2="262.456"/><linearGradient id="lg3"><stop offset="0" stop-color="#f8f6fb"/><stop offset="1" stop-color="#efdcfb"/></linearGradient><linearGradient id="SVGID_10_" gradientTransform="matrix(.707 .707 -.707 .707 266.078 -68.704)" gradientUnits="userSpaceOnUse" x1="135.22" x2="135.22" xlink:href="#lg3" y1="232.673" y2="292.815"/><linearGradient id="SVGID_11_" gradientTransform="matrix(.707 .707 -.707 .707 266.078 -68.704)" gradientUnits="userSpaceOnUse" x1="213.117" x2="213.117" xlink:href="#lg3" y1="232.673" y2="292.815"/><linearGradient id="SVGID_12_" gradientTransform="matrix(.707 .707 -.707 .707 266.078 -68.704)" gradientUnits="userSpaceOnUse" x1="291.015" x2="291.015" xlink:href="#lg3" y1="232.672" y2="292.815"/><linearGradient id="SVGID_13_" gradientTransform="matrix(.707 .707 -.707 .707 266.078 -68.704)" gradientUnits="userSpaceOnUse" x1="361.994" x2="361.994" xlink:href="#lg3" y1="232.672" y2="292.815"/><g><g><path d="m460.407 331.046-233.002-233.017c-5.038-5.023-11.847-7.837-18.958-7.837h-141.178c-12.24 0-22.181 9.925-22.181 22.165v141.178c0 7.111 2.829 13.935 7.852 18.958l233.017 233.002c6.007 6.007 15.75 6.007 21.757 0l152.692-152.692c6.008-6.006 6.008-15.75.001-21.757zm-347.067-150.679c-13.541 0-24.51-10.984-24.51-24.541s10.969-24.526 24.51-24.526c13.557 0 24.556 10.969 24.556 24.526 0 13.556-10.999 24.541-24.556 24.541z" fill="url(#SVGID_1_)"/></g><path d="m460.407 352.803c4.251-4.252 5.492-10.394 3.722-15.735-.726-2.209-1.967-4.282-3.722-6.022l-233.002-233.017c-2.103-2.088-4.493-3.783-7.096-5.053-3.646-1.816-7.701-2.784-11.862-2.784h-141.178c-3.041 0-5.946.62-8.594 1.725.333 35.964 11.317 64.938 28.308 79.054l277.636 277.636zm-347.067-172.436c-13.541 0-24.51-10.984-24.51-24.541s10.969-24.526 24.51-24.526c13.557 0 24.556 10.969 24.556 24.526 0 13.556-10.999 24.54-24.556 24.541z" fill="url(#SVGID_2_)"/><g><g><g><path d="m111.712 180.368c-30.738 0-53.049-37.927-53.049-90.183s22.311-90.185 53.049-90.185 53.049 37.928 53.049 90.185h-41.881c0-21.832-5.309-37.066-9.61-44.284-.701-1.177-2.414-1.177-3.115 0-4.301 7.217-9.611 22.451-9.611 44.284 0 24.502 6.688 40.693 11.133 46.568 2.773-3.685 7.675-5.035 11.868-3.127 21.775 9.905 17.819 42.263-5.771 46.232-2.24.377-4.287.51-6.062.51z" fill="url(#SVGID_3_)"/></g><path d="m131.71 27.59c-12.83 0-21.555 18.312-21.555 18.312.701-1.177 2.414-1.177 3.115 0 4.301 7.217 9.61 22.451 9.61 44.284h40.012v-.001c0-34.571-13.96-62.595-31.182-62.595z" fill="url(#SVGID_4_)"/><path d="m123.546 133.626c-4.194-1.907-9.095-.557-11.868 3.127-2.25-2.974-5.073-8.603-7.315-16.606h-43.02c6.783 36.169 25.899 60.221 50.37 60.221 1.775 0 3.822-.133 6.062-.51 23.59-3.97 27.546-36.327 5.771-46.232z" fill="url(#SVGID_5_)"/></g></g><g><path d="m223.782 443.324-55.784-55.77-46.74-46.74v-112.415c-.728-4.971.106-9.199 2.659-11.752 3.331-3.331 11.151-5.282 14.878-1.556 4.603 4.603.304 14.771 9.397 23.865 2.659 2.659 6.088 4.858 9.447 5.261l.042-43.19c-.75-7.707.905-15.5 8.125-22.719 14.673-14.673 33.05-7.439 45.283 4.794 4.589 4.589 15.549 17.077 12.693 25.18z" fill="url(#SVGID_6_)"/><path d="m268.542 488.084-44.76-44.76-55.784-55.77v-106.773c-.849-3.097-.728-6.131 1.124-7.983.297-.297.778-.58 1.28-.87l53.379-28.447 24.487-13.046c4.504-2.34 10.564.41 15.061 4.907 4.278 4.278 6.958 9.942 5.211 14.361v238.381z" fill="url(#SVGID_7_)"/><path d="m308.224 504.983-.509.509c-6.01 6.01-15.754 6.01-21.758.007l-56.731-56.731v-104.538c-1.146-2.588-1.16-5.332.849-7.34l62.225-62.225c3.224-3.224 8.408-.771 12.219 3.04 3.5 3.5 5.848 8.153 3.705 11.385v65.931z" fill="url(#SVGID_8_)"/><path d="m387.329 425.879-79.613 79.613c-6.01 6.01-15.754 6.01-21.758.007l-8.591-8.591v-104.538c-1.146-2.588-1.16-5.332.848-7.34l62.134-62.133c3.125-3.125 7.997-1.365 11.328 1.966l34.832 34.832c2.058 2.058 1.973 4.759.82 7.255z" fill="url(#SVGID_9_)"/></g><g><g><path d="m164.126 241.988c11.838-11.838-21.23-40.797 1.663-63.69 14.675-14.675 33.068-7.435 45.297 4.794 5.185 5.185 18.49 20.447 10.859 28.078-2.641 2.642-9.783 6.261-14.088 1.957-3.522-3.522-1.663-9.099-9.686-17.121-6.946-6.946-12.621-6.946-15.654-3.913-9.783 9.783 23.089 38.938-1.565 63.592-14.088 14.088-31.992 11.447-46.178-2.739-12.816-12.816-17.317-29.839-10.86-36.297 3.326-3.326 11.153-5.283 14.871-1.565 4.598 4.598.294 14.773 9.392 23.871 4.503 4.501 11.253 7.729 15.949 3.033z" fill="url(#SVGID_10_)"/><path d="m169.116 272.806c.293-.293.783-.587 1.272-.881l77.876-41.482c4.5-2.348 10.566.392 15.066 4.892 4.501 4.5 7.24 10.566 4.892 15.066l-41.384 77.974c-.293.489-.587.978-.881 1.272-3.62 3.62-11.838.685-16.044-3.522-2.446-2.446-3.62-5.185-2.152-7.827l8.903-15.556-20.643-20.643-15.556 8.903c-2.641 1.467-5.381.293-7.827-2.152-4.207-4.206-7.142-12.424-3.522-16.044zm56.059 14.969 19.077-33.362-33.361 19.078z" fill="url(#SVGID_11_)"/><path d="m232.024 348.237c-3.326-3.326-5.088-8.218-1.957-11.349l62.222-62.222c3.229-3.229 8.414-.783 12.229 3.033 3.816 3.816 6.262 9.001 3.033 12.229l-53.613 53.613 22.306 22.306c2.935 2.935 1.076 7.729-2.25 11.055s-8.12 5.185-11.055 2.25z" fill="url(#SVGID_12_)"/><path d="m330.446 363.305 14.675 14.675c2.935 2.935 1.761 7.435-1.37 10.566-2.642 2.641-7.142 4.402-10.37 1.174l-14.675-14.675-16.632 16.632 26.219 26.219c2.935 2.935 1.467 7.729-2.152 11.349-3.131 3.131-7.924 5.185-11.153 1.957l-34.829-34.829c-3.326-3.326-5.087-8.218-1.957-11.349l62.125-62.125c3.131-3.131 8.023-1.369 11.349 1.957l34.829 34.829c3.229 3.229 1.174 8.022-1.957 11.153-3.62 3.62-8.414 5.087-11.349 2.153l-26.219-26.219z" fill="url(#SVGID_13_)"/></g></g></g></svg>