<?xml version="1.0"?>
<svg xmlns="http://www.w3.org/2000/svg" xmlns:xlink="http://www.w3.org/1999/xlink" xmlns:svgjs="http://svgjs.com/svgjs" version="1.1" width="512" height="512" x="0" y="0" viewBox="0 0 512 512" style="enable-background:new 0 0 512 512" xml:space="preserve" class=""><g>
<g xmlns="http://www.w3.org/2000/svg">
	<g>
		<path d="M458.208,117.504L264.726,2.399c-5.377-3.198-12.074-3.198-17.451,0L53.792,117.504    c-5.171,3.077-8.341,8.651-8.341,14.668v65.707c0,138.394,79.96,264.796,204.387,312.97c3.961,1.534,8.359,1.536,12.324,0    c124.125-48.054,204.386-174.182,204.386-312.97v-65.707C466.549,126.154,463.38,120.581,458.208,117.504z M340.317,217.65    L233.352,324.616c-6.665,6.665-17.471,6.665-24.136,0l-37.54-37.539c-6.665-6.664-6.665-17.471,0-24.136    c6.665-6.664,17.472-6.664,24.136,0l25.471,25.471l94.898-94.898c6.664-6.664,17.471-6.664,24.136,0    C346.983,200.18,346.983,210.986,340.317,217.65z" fill="#ffffff" data-original="#000000" style="" class=""/>
	</g>
</g>
<g xmlns="http://www.w3.org/2000/svg">
</g>
<g xmlns="http://www.w3.org/2000/svg">
</g>
<g xmlns="http://www.w3.org/2000/svg">
</g>
<g xmlns="http://www.w3.org/2000/svg">
</g>
<g xmlns="http://www.w3.org/2000/svg">
</g>
<g xmlns="http://www.w3.org/2000/svg">
</g>
<g xmlns="http://www.w3.org/2000/svg">
</g>
<g xmlns="http://www.w3.org/2000/svg">
</g>
<g xmlns="http://www.w3.org/2000/svg">
</g>
<g xmlns="http://www.w3.org/2000/svg">
</g>
<g xmlns="http://www.w3.org/2000/svg">
</g>
<g xmlns="http://www.w3.org/2000/svg">
</g>
<g xmlns="http://www.w3.org/2000/svg">
</g>
<g xmlns="http://www.w3.org/2000/svg">
</g>
<g xmlns="http://www.w3.org/2000/svg">
</g>
</g></svg>
