<svg xmlns="http://www.w3.org/2000/svg" width="303.218" height="183.158" viewBox="0 0 303.218 183.158">
  <g id="Group_5886" data-name="Group 5886" transform="translate(-31.007 -20.135)">
    <g id="Group_4387" data-name="Group 4387" transform="translate(31.007 20.135)">
      <path id="Path_20738" data-name="Path 20738" d="M263.748,344.19s-21.98-27.046-11.115-79.285c6.833-32.858,35.537-49.136,74.017-47.582,13.227.534,34.748-15.386,65.67-34.943,66.143-41.832,161.818-24.066,138.92,70.029-11.081,45.535,34.855,46.265,12.025,91.782Z" transform="translate(-249.617 -161.033)" fill="#f4f4f4"/>
      <path id="Path_20739" data-name="Path 20739" d="M2202.989,456.957c-.1-6.641-11.079-7.37-11.079-7.37s-9.888,9.06-12.025,8.791,6.941-9.4,6.941-9.4c-3.914-1.41-15.392.9-15.392.9s-2.583,12.849-4.588,12.063,2.867-11.261,2.867-11.261c-4.179.176-8.957,3.783-8.957,3.783-6.409,6.224,1.914,14.133,1.914,14.133a21.306,21.306,0,0,1-4.994,8.79h0a15.471,15.471,0,0,0-1.877,2.2l1.059.27q.238-.393.5-.749l0,0,.007-.01c.115-.145.278-.351.48-.6h0c.484-.551.822-.963,1.046-1.265l0,0c1.475-1.741,3.531-3.975,4.6-4.281a2.128,2.128,0,0,1-.1-.543c.033.173.067.354.1.543.823,4.344,9.719,7.3,15.031,7.549s3.474-1.734,1.344-4.737-7.98-3.844-9.432-5.178,1.239-1.614,4.538-.5,4.125,4.91,9.43,6.812,12.05-7.269,12.05-7.269c-4.05.209-10.254-3.576-10.183-4.936s10,1.307,11.656,1.314S2203.09,463.6,2202.989,456.957Z" transform="translate(-1944.189 -416.611)" fill="#f5f5f5"/>
      <path id="Path_20740" data-name="Path 20740" d="M2029.186,813.234c5.167-8.738-8.564-18.446-8.564-18.446s-20.117,3.922-22.688,1.867,16.545-6.712,16.545-6.712c-3.977-4.96-20.786-11.1-20.786-11.1s-13.618,14.69-15.6,12.066,12.722-12.392,12.722-12.392c-5.589-3.1-14.7-2.214-14.7-2.214-13.32,3-8.779,19.951-8.779,19.951a32.563,32.563,0,0,1-13.523,7.473h0a23.632,23.632,0,0,0-4.2,1.372l1.165,1.2c.416-.215.831-.409,1.245-.58a.01.01,0,0,1,.008,0l.018-.007c.265-.1.642-.237,1.106-.4h0c1.072-.331,1.84-.6,2.374-.815l0,0c3.312-1.092,7.773-2.365,9.412-1.911a3.243,3.243,0,0,1,.3-.79c-.095.252-.195.515-.3.79-2.393,6.32,6.847,17.269,13.572,21.832s5.912.511,5.531-5.1-7.336-11.378-8.164-14.276,2.9-1.117,6.313,2.97,1.461,9.691,6.858,16.4,21.508.138,21.508.138c-5.447-2.959-10.514-12.842-9.336-14.558s12,9.685,14.147,11.013S2024.019,821.972,2029.186,813.234Z" transform="translate(-1760.886 -707.895)" fill="#f5f5f5"/>
      <path id="Path_20741" data-name="Path 20741" d="M980.807,789.449c3.064-6.292,13.865-2.081,13.865-2.081s5.386,13.063,7.545,13.762-2.424-12.068-2.424-12.068c4.365.4,14.282,7.741,14.282,7.741s-3.278,13.415-1.013,13.561,2.3-12.026,2.3-12.026c3.909,2.036,6.856,7.613,6.856,7.613,3.334,8.8-8.142,12.629-8.142,12.629a22.451,22.451,0,0,0,.838,10.619h0a16.3,16.3,0,0,1,.808,2.94l-1.131-.216q-.052-.482-.139-.936a.007.007,0,0,0,0-.005l0-.013c-.044-.19-.108-.459-.189-.789h0s0,0,0,0c-.216-.742-.354-1.286-.433-1.675a.007.007,0,0,1,0,0c-.63-2.32-1.593-5.37-2.476-6.14a2.227,2.227,0,0,0,.341-.472l-.341.472c-2.727,3.778-12.535,2.621-17.715.486s-2.54-3.207.834-5.121,9.332-.1,11.314-.726-.46-2.094-4.107-2.5-6.13,2.841-12.042,2.286-8.25-12.321-8.25-12.321c3.771,2.01,11.381,1.17,11.922-.159s-10.13-3.224-11.71-3.955S977.743,795.741,980.807,789.449Z" transform="translate(-898.288 -716.61)" fill="#f5f5f5"/>
      <g id="Group_4338" data-name="Group 4338" transform="translate(237.192 126.18)">
        <g id="Group_4337" data-name="Group 4337">
          <path id="Path_20742" data-name="Path 20742" d="M2413.373,1383.128l-11.68,0-6.178,0a4.374,4.374,0,0,1-4.358-4.363l.013-43.159a4.371,4.371,0,0,1,4.361-4.358l5.479,0,12.379,0a4.373,4.373,0,0,1,4.358,4.361l-.013,43.159A4.374,4.374,0,0,1,2413.373,1383.128Z" transform="translate(-2390.611 -1327.515)" fill="#c0d8fb" opacity="0.5"/>
          <path id="Path_20743" data-name="Path 20743" d="M2423.98,1547.8l-.31-2.272h0l-.31-2.272a2.135,2.135,0,0,0-2.4-1.821c-.064.009-.127.022-.189.036a1.428,1.428,0,1,1,2.823.246,2.134,2.134,0,0,0,1.575-2.565l-.534-2.23h0l-.533-2.231a2.129,2.129,0,0,0-4.141.991l.8,3.36a2.106,2.106,0,0,0-1.679-.9,5.83,5.83,0,0,0-.443-4.489l-3.535-2.922a2.127,2.127,0,0,0-2.9,3.1,2.1,2.1,0,0,0-.567.073l-2.212.605h0l-2.211.605a2.132,2.132,0,0,0-1.5,1.551l-.232-.556h0l-.884-2.116a2.128,2.128,0,1,0-3.927,1.641l.884,2.115h0l.566,1.356a2.134,2.134,0,0,0-1.344,1.869l-.116,2.29h0l-.116,2.291a2.581,2.581,0,0,1,2.568,3.582,2.111,2.111,0,0,0-.9,1.025l-.876,2.119h0l-.875,2.119a7.7,7.7,0,0,1,4.192,3.108,2.134,2.134,0,0,0,2.984-.4l1.394-1.821h0l1.394-1.821a1.389,1.389,0,0,1,1.8-1.173l.365-.252-.505.661h0l-1.394,1.82a2.129,2.129,0,0,0,3.381,2.587l1.393-1.82h0l1.394-1.821c.018-.023.033-.048.05-.072a2.125,2.125,0,0,0,.408.48l-.5.648a2.128,2.128,0,1,0,3.38,2.588l2.788-3.641a2.135,2.135,0,0,0-.4-2.984,2.1,2.1,0,0,0-.508-.286c.026,0,.052,0,.078-.007A2.134,2.134,0,0,0,2423.98,1547.8Zm-19.18-2.031.04-.781a2.038,2.038,0,0,0,.792.77l-.975.673A2.094,2.094,0,0,0,2404.8,1545.77Zm14.343-1.938.417,3.055a2.134,2.134,0,0,0-2.21-1.171,2.108,2.108,0,0,0,.58-.519l1.2-1.563C2419.129,1543.7,2419.134,1543.766,2419.143,1543.832Zm-4.841-8.252.536.443-.552.381A2.107,2.107,0,0,0,2414.3,1535.58Zm.462,6.749a.573.573,0,0,1,.081-1.14l1.677-1.157Zm1.392,3.983a2.14,2.14,0,0,0-1.6-.484l.045-.573a1.094,1.094,0,1,1,1.559,1.057Zm-4.287-8.055a2.134,2.134,0,0,0,.016,2.389c.009.014.02.025.03.039a.468.468,0,1,1-.354-.7,2.123,2.123,0,0,0-.813-1.41l-.007,0Zm-2.118,5.118.821-1.072c-.012.066-.021.133-.026.2l-.155,1.969a2.135,2.135,0,0,0-1.081-.521l.442-.578Zm-3.843,9,.241-.583a2.112,2.112,0,0,0,.1-1.295c.049-.028.1-.056.144-.089l3.775-2.6c.024-.017.046-.036.07-.053a2.122,2.122,0,0,0,.24.582l-.672.464a3.218,3.218,0,0,1-2.761,2.09Zm10.014-2.624.118.492a2.124,2.124,0,0,0-.59-.167Zm4.5.5-.164-.686h0l-.031-.13a.539.539,0,1,1,.195.816Zm-12.892-10.965-1.155,1.509h0l-1.393,1.82c-.006.008-.011.017-.018.026l.073-1.443c0-.037,0-.073,0-.11.065-.02.13-.043.2-.07a1.459,1.459,0,0,1,2.3-1.731Z" transform="translate(-2398.741 -1504.423)" fill="#afcdfb"/>
          <path id="Path_20744" data-name="Path 20744" d="M2401.693,1383.125l-6.178,0a4.374,4.374,0,0,1-4.358-4.363l.013-43.159a4.371,4.371,0,0,1,4.361-4.358l5.479,0a5.343,5.343,0,0,1,.715,2.7l-.014,48.748Q2401.711,1382.91,2401.693,1383.125Z" transform="translate(-2390.611 -1327.515)" fill="#afcdfb" opacity="0.5"/>
          <path id="Path_20745" data-name="Path 20745" d="M2413.086,1303.427l-16.588-.005-9.415,0a.848.848,0,0,1-.847-.848v-4.064a.851.851,0,0,1,.849-.848l9.4,0h0l16.6,0a.85.85,0,0,1,.847.848v4.065A.851.851,0,0,1,2413.086,1303.427Z" transform="translate(-2386.236 -1297.659)" fill="#f99746"/>
          <path id="Path_20746" data-name="Path 20746" d="M2396.5,1303.422l-9.415,0a.848.848,0,0,1-.847-.848v-4.064a.851.851,0,0,1,.849-.848l9.4,0h0a.85.85,0,0,1,.845.848v4.064A.85.85,0,0,1,2396.5,1303.422Z" transform="translate(-2386.236 -1297.659)" fill="#ef7e29"/>
        </g>
      </g>
      <g id="Group_4339" data-name="Group 4339" transform="translate(104.79 16.393)">
        <rect id="Rectangle_11336" data-name="Rectangle 11336" width="123.187" height="165.5" fill="#e8505b"/>
        <rect id="Rectangle_11337" data-name="Rectangle 11337" width="110.092" height="152.711" transform="translate(7.224 5.364)" fill="#fff"/>
        <path id="Path_20747" data-name="Path 20747" d="M1552.233,308.7v5.606a5.6,5.6,0,0,0,5.6,5.606h30.085a5.6,5.6,0,0,0,5.6-5.606V308.7Z" transform="translate(-1512.416 -308.699)" fill="#f99746"/>
      </g>
      <g id="Group_4364" data-name="Group 4364" transform="translate(125.165 43.274)">
        <g id="Group_4341" data-name="Group 4341" transform="translate(38.151 112.931)">
          <path id="Path_20757" data-name="Path 20757" d="M1728.786,1579.447a12.953,12.953,0,0,1-4.79.75c-2.042-.17-3.192-1.24-3.237-3.013a4.547,4.547,0,0,1,1.692-3.637c-.011-.1-.02-.192-.027-.288-.075-.992.136-1.651.629-1.958.8-.5,1.982.183,2.032.212l-.265.453c-.265-.155-1.054-.494-1.49-.22-.376.235-.421.884-.388,1.412a11.136,11.136,0,0,1,3.63-1.625,19.472,19.472,0,0,1,3.421-.584c.006-.124.016-.234.029-.324.036-.244.121-.528.36-.585a.4.4,0,0,1,.423.221,1.266,1.266,0,0,1,.161.637c.38-.009.733,0,1.046.021l.009-.02a6,6,0,0,1,.081-1.826c.133-.607.35-.914.656-.944a.4.4,0,0,1,.416.257,4.905,4.905,0,0,1-.613,2.591v.006c.435.073.73.194.823.362a.391.391,0,0,1-.106.492.62.62,0,0,1-.767.165.753.753,0,0,1-.281-.322,5.483,5.483,0,0,1-1.034,1.539.516.516,0,0,1-.61.089.565.565,0,0,1-.133-.106,7.185,7.185,0,0,1-.4.826c-.548.963-1.167,1.459-1.787,1.429a1.01,1.01,0,0,1-.669-.3,9.721,9.721,0,0,1-1.2,1.979,1.408,1.408,0,0,1-1.567.555c-1.017-.318-1.937-1.79-2.282-3.533a3.932,3.932,0,0,0-1.263,3.011c.039,1.512.967,2.354,2.757,2.5,4.518.376,12.439-3.824,13.04-6.915h0C1736.591,1575.272,1732.832,1578.136,1728.786,1579.447Zm-5.779-5.691c.275,1.84,1.2,3.191,1.978,3.435a.894.894,0,0,0,1-.385,9.032,9.032,0,0,0,1.263-2.159,3.213,3.213,0,0,1-.218-.685,4.937,4.937,0,0,1,0-2.009,13.245,13.245,0,0,0-2.473.861A8.113,8.113,0,0,0,1723.007,1573.756Zm4.823.86a.6.6,0,0,0,.461.314c.4.017.875-.406,1.308-1.165a6.918,6.918,0,0,0,.541-1.222,5.193,5.193,0,0,1-.147-1.066c-.581.047-1.215.125-1.868.244A3.947,3.947,0,0,1,1727.83,1574.617Zm2.857-2.063c.082.247.155.294.156.295a4.913,4.913,0,0,0,.933-1.419c-.249-.009-.53-.01-.835,0A6.373,6.373,0,0,1,1730.687,1572.553Zm-3.078-.674a4.015,4.015,0,0,0-.067,1.961A2.578,2.578,0,0,0,1727.608,1571.88Zm5.163-.335h0Zm-.077-2.691a3.266,3.266,0,0,0-.124.549A4.029,4.029,0,0,0,1732.694,1568.854Z" transform="translate(-1720.757 -1568.125)" fill="#f99746"/>
        </g>
        
        <g id="Group_4344" data-name="Group 4344" transform="translate(0 23.388)">
          <g id="Group_4342" data-name="Group 4342" transform="translate(0 3.414)">
            <path id="Path_20758" data-name="Path 20758" d="M1397.009,812.189H1377.1V792.278h19.911Zm-18.974-.938h18.036V793.216h-18.036Z" transform="translate(-1377.098 -792.278)" fill="#e8505b"/>
          </g>
          <g id="Group_4343" data-name="Group 4343" transform="translate(2.899)">
            <path id="Path_20759" data-name="Path 20759" d="M1410.766,780.848a1.407,1.407,0,0,1-1.084-.51l-6.144-7.433a1.407,1.407,0,0,1,2.169-1.793l4.873,5.895,8.815-14.8a1.407,1.407,0,1,1,2.417,1.44l-9.836,16.509a1.407,1.407,0,0,1-1.1.683C1410.837,780.847,1410.8,780.848,1410.766,780.848Z" transform="translate(-1403.215 -761.525)" fill="#e8505b"/>
          </g>
        </g>
        <g id="Group_4347" data-name="Group 4347" transform="translate(0 54.349)">
          <g id="Group_4345" data-name="Group 4345" transform="translate(0 3.586)">
            <path id="Path_20760" data-name="Path 20760" d="M1397.009,1092.633H1377.1v-19.911h19.911Zm-18.974-.938h18.036V1073.66h-18.036Z" transform="translate(-1377.098 -1072.722)" fill="#e8505b"/>
          </g>
          <g id="Group_4346" data-name="Group 4346" transform="translate(2.899)">
            <path id="Path_20761" data-name="Path 20761" d="M1410.766,1059.746a1.407,1.407,0,0,1-1.084-.51l-6.144-7.433a1.407,1.407,0,0,1,2.169-1.792l4.873,5.895,8.815-14.8a1.407,1.407,0,1,1,2.417,1.44l-9.836,16.509a1.406,1.406,0,0,1-1.1.683C1410.837,1059.745,1410.8,1059.746,1410.766,1059.746Z" transform="translate(-1403.215 -1040.423)" fill="#e8505b"/>
          </g>
        </g>
        <g id="Group_4350" data-name="Group 4350" transform="translate(0 84.545)">
          <g id="Group_4348" data-name="Group 4348" transform="translate(0 3.879)">
            <path id="Path_20762" data-name="Path 20762" d="M1397.009,1367.268H1377.1v-19.911h19.911Zm-18.974-.937h18.036v-18.036h-18.036Z" transform="translate(-1377.098 -1347.357)" fill="#e8505b"/>
          </g>
          <g id="Group_4349" data-name="Group 4349" transform="translate(2.899)">
            <path id="Path_20763" data-name="Path 20763" d="M1410.766,1331.742a1.407,1.407,0,0,1-1.084-.51l-6.144-7.433a1.407,1.407,0,0,1,2.169-1.793l4.873,5.895,8.815-14.8a1.407,1.407,0,0,1,2.417,1.44l-9.836,16.509a1.406,1.406,0,0,1-1.1.682C1410.837,1331.741,1410.8,1331.742,1410.766,1331.742Z" transform="translate(-1403.215 -1312.419)" fill="#e8505b"/>
          </g>
        </g>
        <g id="Group_4354" data-name="Group 4354" transform="translate(33.33 31.448)" opacity="0.5">
          <g id="Group_4351" data-name="Group 4351">
            <rect id="Rectangle_11338" data-name="Rectangle 11338" width="25.963" height="1.943" fill="#b5b5b5" opacity="0.999"/>
            <rect id="Rectangle_11339" data-name="Rectangle 11339" width="5.901" height="1.943" transform="translate(42.123)" fill="#b5b5b5" opacity="0.999"/>
          </g>
          <g id="Group_4352" data-name="Group 4352" transform="translate(0 8.677)">
            <rect id="Rectangle_11340" data-name="Rectangle 11340" width="25.963" height="1.943" fill="#b5b5b5" opacity="0.999"/>
            <rect id="Rectangle_11341" data-name="Rectangle 11341" width="8.798" height="1.943" transform="translate(39.227)" fill="#b5b5b5" opacity="0.999"/>
          </g>
          <g id="Group_4353" data-name="Group 4353" transform="translate(0 4.338)">
            <rect id="Rectangle_11342" data-name="Rectangle 11342" width="7.231" height="1.943" transform="translate(40.793)" fill="#b5b5b5" opacity="0.999"/>
            <rect id="Rectangle_11343" data-name="Rectangle 11343" width="7.231" height="1.943" transform="translate(19.182)" fill="#b5b5b5" opacity="0.999"/>
            <rect id="Rectangle_11344" data-name="Rectangle 11344" width="16.068" height="1.943" fill="#b5b5b5" opacity="0.999"/>
          </g>
        </g>
        <g id="Group_4358" data-name="Group 4358" transform="translate(33.33 61.349)" opacity="0.5">
          <g id="Group_4355" data-name="Group 4355">
            <rect id="Rectangle_11345" data-name="Rectangle 11345" width="24.972" height="1.943" fill="#b5b5b5" opacity="0.999"/>
          </g>
          <g id="Group_4356" data-name="Group 4356" transform="translate(0 8.677)">
            <rect id="Rectangle_11346" data-name="Rectangle 11346" width="25.963" height="1.943" fill="#b5b5b5" opacity="0.999"/>
          </g>
          <g id="Group_4357" data-name="Group 4357" transform="translate(0 4.338)">
            <rect id="Rectangle_11347" data-name="Rectangle 11347" width="6.719" height="1.943" transform="translate(17.929)" fill="#b5b5b5" opacity="0.999"/>
            <rect id="Rectangle_11348" data-name="Rectangle 11348" width="16.068" height="1.943" fill="#b5b5b5" opacity="0.999"/>
          </g>
        </g>
        <g id="Group_4362" data-name="Group 4362" transform="translate(33.33 92.098)" opacity="0.5">
          <g id="Group_4359" data-name="Group 4359">
            <rect id="Rectangle_11349" data-name="Rectangle 11349" width="25.963" height="1.943" fill="#b5b5b5" opacity="0.999"/>
          </g>
          <g id="Group_4360" data-name="Group 4360" transform="translate(0 8.677)">
            <rect id="Rectangle_11350" data-name="Rectangle 11350" width="25.963" height="1.943" fill="#b5b5b5" opacity="0.999"/>
          </g>
          <g id="Group_4361" data-name="Group 4361" transform="translate(0 4.338)">
            <rect id="Rectangle_11351" data-name="Rectangle 11351" width="11.291" height="1.943" transform="translate(17.929)" fill="#b5b5b5" opacity="0.999"/>
            <rect id="Rectangle_11352" data-name="Rectangle 11352" width="16.068" height="1.943" fill="#b5b5b5" opacity="0.999"/>
          </g>
        </g>
        <g id="Group_4363" data-name="Group 4363" transform="translate(0 118.978)">
          <rect id="Rectangle_11353" data-name="Rectangle 11353" width="13.621" height="1.379" transform="translate(0 0)" fill="#b5b5b5" opacity="0.999"/>
          <rect id="Rectangle_11354" data-name="Rectangle 11354" width="13.621" height="1.379" transform="translate(16.776 0)" fill="#b5b5b5" opacity="0.999"/>
          <rect id="Rectangle_11355" data-name="Rectangle 11355" width="18.89" height="1.379" transform="translate(0 3.059)" fill="#b5b5b5" opacity="0.999"/>
        </g>
        <!-- <path id="Path_21401" data-name="Path 21401" d="M-13.489,0h-1.491V-3.476h-3.729V0H-20.2V-7.953h1.49v3.421h3.729V-7.953h1.491Zm6.622-7.953v1.177h-3.525V-4.57h2.778v1.138h-2.778v2.25h3.525V0h-5.016V-7.953ZM1.405,0H.261A.5.5,0,0,1-.055-.1.547.547,0,0,1-.234-.336L-.828-1.958H-4.122L-4.716-.336A.521.521,0,0,1-4.89-.1a.487.487,0,0,1-.316.1H-6.355l3.124-7.953h1.512ZM-3.743-3h2.535l-.968-2.645q-.066-.176-.146-.415t-.157-.52q-.077.28-.151.523t-.146.424ZM3.7-1.221H6.889V0H2.225V-7.953H3.7Zm8.844-6.732v1.215H10.156V0H8.676V-6.738h-2.4V-7.953ZM20.2,0H18.708V-3.476H14.979V0H13.489V-7.953h1.491v3.421h3.729V-7.953H20.2ZM-28.872,12h-1.485V4.047h1.485Zm2.563-7.953a1.368,1.368,0,0,1,.165.008.387.387,0,0,1,.118.033.4.4,0,0,1,.1.072,1.146,1.146,0,0,1,.11.124L-21.64,9.6q-.022-.192-.03-.377t-.008-.344V4.047h1.3V12h-.765a.678.678,0,0,1-.291-.055.649.649,0,0,1-.226-.2l-4.158-5.3q.016.176.025.349t.008.316V12h-1.3V4.047Zm11.8,1.447a.408.408,0,0,1-.14.171.353.353,0,0,1-.19.049.482.482,0,0,1-.248-.085q-.137-.085-.325-.19a2.65,2.65,0,0,0-.437-.19,1.838,1.838,0,0,0-.591-.085,1.738,1.738,0,0,0-.536.074,1.135,1.135,0,0,0-.385.206.824.824,0,0,0-.234.316,1.038,1.038,0,0,0-.077.4.7.7,0,0,0,.157.467,1.309,1.309,0,0,0,.415.319,3.854,3.854,0,0,0,.588.236q.33.1.674.223a6.488,6.488,0,0,1,.674.275,2.335,2.335,0,0,1,.589.4,1.8,1.8,0,0,1,.415.586A2.034,2.034,0,0,1-14,9.509a2.742,2.742,0,0,1-.184,1.009,2.328,2.328,0,0,1-.539.819,2.539,2.539,0,0,1-.866.55,3.189,3.189,0,0,1-1.172.2,3.777,3.777,0,0,1-.748-.074,3.938,3.938,0,0,1-.707-.212,3.69,3.69,0,0,1-.632-.33,3.113,3.113,0,0,1-.525-.429l.429-.71A.547.547,0,0,1-18.8,10.2a.356.356,0,0,1,.19-.052.525.525,0,0,1,.3.113q.159.113.377.25a2.891,2.891,0,0,0,.512.25,1.977,1.977,0,0,0,.707.113,1.451,1.451,0,0,0,.979-.3,1.076,1.076,0,0,0,.347-.861.8.8,0,0,0-.157-.512,1.265,1.265,0,0,0-.415-.333,3.1,3.1,0,0,0-.588-.228q-.33-.093-.671-.2a5.786,5.786,0,0,1-.671-.264,2.174,2.174,0,0,1-.588-.4,1.827,1.827,0,0,1-.415-.619,2.358,2.358,0,0,1-.157-.916,2.168,2.168,0,0,1,.173-.847,2.168,2.168,0,0,1,.506-.732,2.5,2.5,0,0,1,.817-.512,2.973,2.973,0,0,1,1.105-.193,3.71,3.71,0,0,1,1.3.22,2.93,2.93,0,0,1,1.012.616Zm4.84,5.313a1.954,1.954,0,0,0,.767-.143,1.6,1.6,0,0,0,.572-.4,1.753,1.753,0,0,0,.357-.627,2.582,2.582,0,0,0,.124-.825V4.047h1.479V8.81a3.672,3.672,0,0,1-.228,1.312,2.965,2.965,0,0,1-.657,1.04,3,3,0,0,1-1.04.682,3.668,3.668,0,0,1-1.375.245,3.668,3.668,0,0,1-1.375-.245,2.97,2.97,0,0,1-1.037-.682,2.985,2.985,0,0,1-.655-1.04,3.672,3.672,0,0,1-.228-1.312V4.047h1.479V8.8a2.582,2.582,0,0,0,.124.825,1.8,1.8,0,0,0,.355.63,1.557,1.557,0,0,0,.569.4A1.954,1.954,0,0,0-9.666,10.807ZM-3.33,8.892V12H-4.81V4.047h2.426A5.066,5.066,0,0,1-.99,4.215a2.657,2.657,0,0,1,.952.47,1.815,1.815,0,0,1,.544.723,2.411,2.411,0,0,1,.173.927,2.4,2.4,0,0,1-.118.759,2.2,2.2,0,0,1-.341.649,2.3,2.3,0,0,1-.55.511,2.883,2.883,0,0,1-.745.352,1.466,1.466,0,0,1,.484.456L1.4,12H.069a.65.65,0,0,1-.327-.077.669.669,0,0,1-.228-.22L-2.159,9.156a.587.587,0,0,0-.206-.2A.723.723,0,0,0-2.7,8.892Zm0-1.062h.924a2.29,2.29,0,0,0,.729-.1,1.409,1.409,0,0,0,.512-.289A1.16,1.16,0,0,0-.866,7a1.512,1.512,0,0,0,.1-.556,1.129,1.129,0,0,0-.4-.93,1.907,1.907,0,0,0-1.218-.325H-3.33ZM9.336,12H8.192a.5.5,0,0,1-.316-.1.547.547,0,0,1-.179-.239L7.1,10.042H3.809l-.594,1.623a.521.521,0,0,1-.173.231.487.487,0,0,1-.316.1H1.576L4.7,4.047H6.212ZM4.188,9H6.724L5.756,6.352q-.066-.176-.146-.415t-.157-.52q-.077.28-.151.523t-.146.424Zm6.743-4.95a1.368,1.368,0,0,1,.165.008.387.387,0,0,1,.118.033.4.4,0,0,1,.1.072,1.146,1.146,0,0,1,.11.124L15.6,9.6q-.022-.192-.03-.377t-.008-.344V4.047h1.3V12H16.1a.678.678,0,0,1-.292-.055.649.649,0,0,1-.226-.2l-4.158-5.3q.017.176.025.349t.008.316V12h-1.3V4.047Zm13.008,6.078a.278.278,0,0,1,.209.094l.583.632a3.2,3.2,0,0,1-1.191.918,4.1,4.1,0,0,1-1.7.319,4.009,4.009,0,0,1-1.592-.3,3.509,3.509,0,0,1-1.207-.841,3.684,3.684,0,0,1-.767-1.287,4.831,4.831,0,0,1-.267-1.633,4.4,4.4,0,0,1,.3-1.642,3.708,3.708,0,0,1,2.126-2.123,4.434,4.434,0,0,1,1.658-.3,3.915,3.915,0,0,1,1.548.283,3.618,3.618,0,0,1,1.136.751l-.5.688a.449.449,0,0,1-.113.116.32.32,0,0,1-.19.049.433.433,0,0,1-.259-.1,3.2,3.2,0,0,0-.335-.214,2.735,2.735,0,0,0-.514-.215,2.97,2.97,0,0,0-1.821.1,2.292,2.292,0,0,0-.808.558,2.569,2.569,0,0,0-.528.883,3.39,3.39,0,0,0-.19,1.169,3.484,3.484,0,0,0,.19,1.193,2.624,2.624,0,0,0,.514.88,2.2,2.2,0,0,0,.764.547,2.363,2.363,0,0,0,.946.19,4.121,4.121,0,0,0,.547-.033,2.323,2.323,0,0,0,.451-.1,2,2,0,0,0,.39-.184,2.44,2.44,0,0,0,.366-.278.521.521,0,0,1,.116-.08A.291.291,0,0,1,23.939,10.125Zm6.924-6.078V5.224H27.338V7.43h2.778V8.568H27.338v2.25h3.526V12H25.847V4.047Z" transform="translate(40.835 3.727)" fill="#333"/> -->
      </g>
      <g id="Group_4373" data-name="Group 4373" transform="translate(31.661 84.748)">
        <g id="Group_4368" data-name="Group 4368" transform="translate(6.558)">
          <g id="Group_4367" data-name="Group 4367">
            <g id="Group_4366" data-name="Group 4366">
              <path id="Path_20764" data-name="Path 20764" d="M632.818,929.753v47.613a5.328,5.328,0,0,1-5.313,5.313H599.2a5.253,5.253,0,0,1-2.132-.45,5.331,5.331,0,0,1-3.18-4.863V929.753a5.328,5.328,0,0,1,5.313-5.313h28.3A5.327,5.327,0,0,1,632.818,929.753Z" transform="translate(-593.892 -924.44)" fill="#fcecdb"/>
              <path id="Path_20765" data-name="Path 20765" d="M801.564,996.044a5.783,5.783,0,1,1,7.447-3.381A5.782,5.782,0,0,1,801.564,996.044Z" transform="translate(-775.174 -978.139)" fill="#f7e0cb"/>
              <path id="Path_20766" data-name="Path 20766" d="M811.979,992.663,801.151,988.6a5.783,5.783,0,0,1,10.828,4.066Z" transform="translate(-778.143 -978.139)" fill="#efcbab"/>
              <path id="Path_20767" data-name="Path 20767" d="M638.535,995.12a5.783,5.783,0,1,1,8.137-.823A5.783,5.783,0,0,1,638.535,995.12Z" transform="translate(-631.689 -978.15)" fill="#f7e0cb"/>
              <path id="Path_20768" data-name="Path 20768" d="M657.111,994.3l-8.96-7.314a5.783,5.783,0,1,1,8.96,7.314Z" transform="translate(-642.128 -978.15)" fill="#efcbab"/>
              <path id="Path_20769" data-name="Path 20769" d="M801.564,1313.829a5.783,5.783,0,1,1,7.447-3.381A5.782,5.782,0,0,1,801.564,1313.829Z" transform="translate(-775.174 -1260.647)" fill="#f7e0cb"/>
              <path id="Path_20770" data-name="Path 20770" d="M811.979,1313.988l-10.828-4.066a5.783,5.783,0,0,1,10.828,4.066Z" transform="translate(-778.143 -1263.793)" fill="#efcbab"/>
              <circle id="Ellipse_1250" data-name="Ellipse 1250" cx="5.783" cy="5.783" r="5.783" transform="matrix(0.919, -0.394, 0.394, 0.919, 2.911, 44.729)" fill="#f7e0cb"/>
              <path id="Path_20771" data-name="Path 20771" d="M657.111,1315.623l-8.96-7.314a5.783,5.783,0,1,1,8.96,7.314Z" transform="translate(-642.128 -1263.804)" fill="#efcbab"/>
              <g id="Group_4365" data-name="Group 4365" transform="translate(22.638 25.002)">
                <path id="Path_20772" data-name="Path 20772" d="M806.075,1160.668a5.783,5.783,0,1,1,2.749-7.7A5.782,5.782,0,0,1,806.075,1160.668Z" transform="translate(-797.814 -1149.657)" fill="#f7e0cb"/>
                <path id="Path_20773" data-name="Path 20773" d="M808.824,1152.965l-10.452,4.953a5.783,5.783,0,0,1,10.452-4.953Z" transform="translate(-797.814 -1149.657)" fill="#efcbab"/>
              </g>
              <path id="Path_20774" data-name="Path 20774" d="M636.815,1153.289a5.783,5.783,0,1,1,3.22,7.518A5.783,5.783,0,0,1,636.815,1153.289Z" transform="translate(-631.68 -1124.652)" fill="#f7e0cb"/>
              <path id="Path_20775" data-name="Path 20775" d="M669.149,1164.136l4.3-10.738a5.783,5.783,0,0,1-4.3,10.738Z" transform="translate(-660.794 -1127.981)" fill="#efcbab"/>
            </g>
          </g>
          <path id="Path_20776" data-name="Path 20776" d="M682.6,1030.994v41.432a4.935,4.935,0,0,1-4.862,4.978h-25.9a4.711,4.711,0,0,1-1.951-.422V1036.73a5.783,5.783,0,0,1,1.781-4.184,5.624,5.624,0,0,1,1.368-.968,5.443,5.443,0,0,1,2.452-.583Z" transform="translate(-643.679 -1019.165)" fill="#efcbab" opacity="0.5"/>
        </g>
        <g id="Group_4371" data-name="Group 4371" transform="translate(13.7 12.096)">
          <g id="Group_4370" data-name="Group 4370" transform="translate(0 0)">
            <rect id="Rectangle_11356" data-name="Rectangle 11356" width="58.239" height="38.926" rx="19.463" transform="translate(38.926 0) rotate(90)" fill="#fcecdb"/>
            <path id="Path_20777" data-name="Path 20777" d="M865.9,1105.011a5.783,5.783,0,1,1,7.447-3.381A5.783,5.783,0,0,1,865.9,1105.011Z" transform="translate(-839.506 -1087.106)" fill="#f7e0cb"/>
            <path id="Path_20778" data-name="Path 20778" d="M876.31,1101.63l-10.828-4.066a5.783,5.783,0,0,1,10.828,4.066Z" transform="translate(-842.474 -1087.106)" fill="#efcbab"/>
            <path id="Path_20779" data-name="Path 20779" d="M702.867,1104.088a5.783,5.783,0,1,1,8.137-.823A5.783,5.783,0,0,1,702.867,1104.088Z" transform="translate(-696.021 -1087.117)" fill="#f7e0cb"/>
            <path id="Path_20780" data-name="Path 20780" d="M721.443,1103.265l-8.96-7.314a5.783,5.783,0,1,1,8.96,7.314Z" transform="translate(-706.459 -1087.117)" fill="#efcbab"/>
            <path id="Path_20781" data-name="Path 20781" d="M865.9,1422.8a5.783,5.783,0,1,1,7.447-3.381A5.782,5.782,0,0,1,865.9,1422.8Z" transform="translate(-839.506 -1369.614)" fill="#f7e0cb"/>
            <path id="Path_20782" data-name="Path 20782" d="M876.31,1422.956l-10.828-4.066a5.783,5.783,0,0,1,10.828,4.066Z" transform="translate(-842.474 -1372.761)" fill="#efcbab"/>
            <path id="Path_20783" data-name="Path 20783" d="M702.867,1421.873a5.783,5.783,0,1,1,8.137-.823A5.783,5.783,0,0,1,702.867,1421.873Z" transform="translate(-696.021 -1369.624)" fill="#f7e0cb"/>
            <path id="Path_20784" data-name="Path 20784" d="M721.443,1424.59l-8.96-7.314a5.783,5.783,0,0,1,8.96,7.314Z" transform="translate(-706.459 -1372.771)" fill="#efcbab"/>
            <g id="Group_4369" data-name="Group 4369" transform="translate(22.638 25.002)">
              <path id="Path_20785" data-name="Path 20785" d="M870.406,1269.636a5.783,5.783,0,1,1,2.749-7.7A5.783,5.783,0,0,1,870.406,1269.636Z" transform="translate(-862.145 -1258.625)" fill="#f7e0cb"/>
              <path id="Path_20786" data-name="Path 20786" d="M873.155,1261.933l-10.452,4.953a5.783,5.783,0,1,1,10.452-4.953Z" transform="translate(-862.145 -1258.625)" fill="#efcbab"/>
            </g>
            <circle id="Ellipse_1251" data-name="Ellipse 1251" cx="5.783" cy="5.783" r="5.783" transform="translate(2.693 28.362) rotate(-27.755)" fill="#f7e0cb"/>
            <path id="Path_20787" data-name="Path 20787" d="M733.48,1273.1l4.3-10.738a5.783,5.783,0,1,1-4.3,10.738Z" transform="translate(-725.126 -1236.948)" fill="#efcbab"/>
          </g>
        </g>
        <g id="Group_4372" data-name="Group 4372" transform="translate(0 31.088)">
          <rect id="Rectangle_11357" data-name="Rectangle 11357" width="44.448" height="66.334" transform="translate(3.797 0)" fill="#e8505b"/>
          <rect id="Rectangle_11358" data-name="Rectangle 11358" width="44.448" height="66.334" transform="translate(9.988)" fill="#e8505b"/>
          <path id="Path_20788" data-name="Path 20788" d="M575.21,1208.333l-2.13,3.313h-4.061v-7.162h6.191Z" transform="translate(-565.222 -1204.483)" fill="#d8404b"/>
          <path id="Path_20789" data-name="Path 20789" d="M541.009,1209.709h-6.191l3.8-5.226h6.191Z" transform="translate(-534.818 -1204.483)" fill="#e8505b"/>
          <path id="Path_20790" data-name="Path 20790" d="M647.716,1295.234H624.791v-63.523l22.925,2.2Z" transform="translate(-614.803 -1228.688)" fill="#efcbab" opacity="0.5"/>
          <path id="Path_20791" data-name="Path 20791" d="M669.239,1209.707l-3.606,1.936h-38.7l-2.143-3.313v-3.849Z" transform="translate(-614.803 -1204.48)" fill="#d8404b"/>
          <path id="Path_20792" data-name="Path 20792" d="M672.375,1209.709H627.927l-3.14-5.226h44.448Z" transform="translate(-614.799 -1204.483)" fill="#e8505b"/>
        </g>
      </g>
      <g id="Group_4377" data-name="Group 4377" transform="translate(18.457 142.368)">
        <g id="Group_4376" data-name="Group 4376">
          <g id="Group_4375" data-name="Group 4375">
            <rect id="Rectangle_11359" data-name="Rectangle 11359" width="58.576" height="39.712" rx="19.856" fill="#fcecdb"/>
            <path id="Path_20793" data-name="Path 20793" d="M487.9,1494.819a5.792,5.792,0,0,1-7.49,3.449,5.924,5.924,0,0,1-3.4-7.6,5.793,5.793,0,0,1,7.49-3.449A5.926,5.926,0,0,1,487.9,1494.819Z" transform="translate(-469.888 -1482.029)" fill="#f7e0cb"/>
            <path id="Path_20794" data-name="Path 20794" d="M484.5,1487.221l-4.089,11.047a5.924,5.924,0,0,1-3.4-7.6A5.793,5.793,0,0,1,484.5,1487.221Z" transform="translate(-469.888 -1482.029)" fill="#efcbab"/>
            <path id="Path_20795" data-name="Path 20795" d="M486.967,1661.161a5.76,5.76,0,0,1-8.184.839,5.957,5.957,0,0,1-.827-8.3,5.762,5.762,0,0,1,8.184-.839A5.958,5.958,0,0,1,486.967,1661.161Z" transform="translate(-469.898 -1628.434)" fill="#f7e0cb"/>
            <path id="Path_20796" data-name="Path 20796" d="M486.14,1652.86,478.783,1662a5.957,5.957,0,0,1-.827-8.3A5.762,5.762,0,0,1,486.14,1652.86Z" transform="translate(-469.898 -1628.434)" fill="#efcbab"/>
            <path id="Path_20797" data-name="Path 20797" d="M807.523,1494.819a5.792,5.792,0,0,1-7.49,3.449,5.924,5.924,0,0,1-3.4-7.6,5.794,5.794,0,0,1,7.49-3.449A5.926,5.926,0,0,1,807.523,1494.819Z" transform="translate(-754.031 -1482.029)" fill="#f7e0cb"/>
            <path id="Path_20798" data-name="Path 20798" d="M804.134,1487.221l-4.089,11.047a5.925,5.925,0,0,1-3.4-7.6A5.794,5.794,0,0,1,804.134,1487.221Z" transform="translate(-754.042 -1482.029)" fill="#efcbab"/>
            <path id="Path_20799" data-name="Path 20799" d="M806.594,1661.157a5.757,5.757,0,0,1-7.923,1.041c-.089-.062-.175-.131-.26-.2a5.957,5.957,0,0,1-.827-8.3,5.76,5.76,0,0,1,8.184-.839c.085.071.167.141.247.217A5.959,5.959,0,0,1,806.594,1661.157Z" transform="translate(-754.042 -1628.43)" fill="#f7e0cb"/>
            <path id="Path_20800" data-name="Path 20800" d="M806.014,1653.073l-7.343,9.125c-.089-.062-.175-.131-.26-.2a5.957,5.957,0,0,1-.827-8.3,5.76,5.76,0,0,1,8.184-.839C805.851,1652.927,805.933,1653,806.014,1653.073Z" transform="translate(-754.042 -1628.43)" fill="#efcbab"/>
            <g id="Group_4374" data-name="Group 4374" transform="translate(25.147 4.814)">
              <path id="Path_20801" data-name="Path 20801" d="M653.474,1490.22a5.936,5.936,0,0,1-2.765,7.858,5.781,5.781,0,0,1-7.747-2.8,5.937,5.937,0,0,1,2.765-7.858A5.782,5.782,0,0,1,653.474,1490.22Z" transform="translate(-642.4 -1486.845)" fill="#f7e0cb"/>
              <path id="Path_20802" data-name="Path 20802" d="M645.727,1491.977l4.982,10.663a5.781,5.781,0,0,1-7.747-2.8A5.938,5.938,0,0,1,645.727,1491.977Z" transform="translate(-642.4 -1491.407)" fill="#efcbab"/>
            </g>
            <path id="Path_20803" data-name="Path 20803" d="M646.053,1662.893a5.928,5.928,0,0,1-3.239-7.67,5.789,5.789,0,0,1,7.562-3.285,5.929,5.929,0,0,1,3.239,7.67A5.79,5.79,0,0,1,646.053,1662.893Z" transform="translate(-617.25 -1628.42)" fill="#f7e0cb"/>
            <path id="Path_20804" data-name="Path 20804" d="M656.963,1659.608l-10.8-4.385a5.789,5.789,0,0,1,7.562-3.285A5.929,5.929,0,0,1,656.963,1659.608Z" transform="translate(-620.598 -1628.42)" fill="#efcbab"/>
          </g>
        </g>
      </g>
      <g id="Group_4380" data-name="Group 4380" transform="translate(91.372 161.162)">
        <g id="Group_4378" data-name="Group 4378" transform="translate(18.026 11.493)">
          <path id="Path_20805" data-name="Path 20805" d="M1267.029,1721.065a4.772,4.772,0,0,1-4.755,4.756h-22.456a4.755,4.755,0,0,1,0-9.51h22.456A4.769,4.769,0,0,1,1267.029,1721.065Z" transform="translate(-1235.064 -1716.311)" fill="#2b478b"/>
          <path id="Path_20806" data-name="Path 20806" d="M1255.445,1721.065a4.77,4.77,0,0,1-4.754,4.756h-10.873a4.755,4.755,0,0,1,0-9.51h10.873A4.768,4.768,0,0,1,1255.445,1721.065Z" transform="translate(-1235.064 -1716.311)" fill="#699ff0"/>
          <rect id="Rectangle_11360" data-name="Rectangle 11360" width="22.768" height="1.5" rx="0.75" transform="translate(5.497 1.054)" fill="#e9f3fe" opacity="0.4"/>
        </g>
        <g id="Group_4379" data-name="Group 4379">
          <path id="Path_20807" data-name="Path 20807" d="M1103.518,1615.559a5.059,5.059,0,0,1-2.249,6.766l-21.284,10.666a5.041,5.041,0,0,1-4.517-9.014l21.284-10.666A5.057,5.057,0,0,1,1103.518,1615.559Z" transform="translate(-1072.69 -1612.78)" fill="#ef7e29"/>
          <path id="Path_20808" data-name="Path 20808" d="M1092.538,1665.119a5.056,5.056,0,0,1-2.247,6.766l-10.306,5.165a5.041,5.041,0,0,1-4.517-9.014l10.306-5.165A5.054,5.054,0,0,1,1092.538,1665.119Z" transform="translate(-1072.69 -1656.838)" fill="#f99746"/>
          <path id="Path_20809" data-name="Path 20809" d="M1132.189,1625.759l-20.3,10.174a.717.717,0,0,1-.959-.319l-.072-.144a.716.716,0,0,1,.319-.959l20.3-10.174a.716.716,0,0,1,.959.318l.072.144A.716.716,0,0,1,1132.189,1625.759Z" transform="translate(-1106.552 -1622.988)" fill="#ffe2cc" opacity="0.5"/>
        </g>
      </g>
      <g id="Group_4385" data-name="Group 4385" transform="translate(147.744 71.014)">
        <g id="Group_4381" data-name="Group 4381" transform="translate(43.716 17.078)">
          <path id="Path_20810" data-name="Path 20810" d="M2167.028,1219.212a20.249,20.249,0,0,1,.923,3.821,13.874,13.874,0,0,1-1.174,3.763c-.453.622-.676-2.533-1.035-3.008s-.073,1.188-.326,1.342-.779-1.223-1.006-1.709.554-2.277.556-3.526S2167.028,1219.212,2167.028,1219.212Z" transform="translate(-2143.268 -1189.719)" fill="#ffb27d"/>
          <path id="Path_20811" data-name="Path 20811" d="M1974.3,959.354a4.415,4.415,0,0,1,6.652-4.156q.094.057.187.117c4.579,2.947,14.458,16.7,15.138,18.077s2.687,12.338,2.687,12.338-2.48.907-3.64-.034c0,0-4.022-10.394-4.617-10.914s-16.088-9.213-16.22-12.472C1974.449,961.448,1974.38,960.411,1974.3,959.354Z" transform="translate(-1974.283 -954.561)" fill="#233862"/>
        </g>
        <g id="Group_4382" data-name="Group 4382" transform="translate(0 15.701)">
          <rect id="Rectangle_11361" data-name="Rectangle 11361" width="4.096" height="20.605" transform="translate(5.197 11.06) rotate(-109.196)" fill="#f99746"/>
          <path id="Path_20812" data-name="Path 20812" d="M1580.489,1010.453l5.2.359-1.347-3.868Z" transform="translate(-1580.489 -999.752)" fill="#f9ddbf"/>
          <path id="Path_20813" data-name="Path 20813" d="M1793.171,943.072l.426,1.223a1.442,1.442,0,0,1-.888,1.836l-.9.313-1.347-3.868.979-.341A1.359,1.359,0,0,1,1793.171,943.072Z" transform="translate(-1767.152 -942.16)" fill="#f9ddbf"/>
        </g>
        <g id="Group_4383" data-name="Group 4383" transform="translate(37.877 48.968)">
          <path id="Path_20814" data-name="Path 20814" d="M2169.9,1716.426s1.846,1.685,1.486,2.882-2.026,2-2.251,3.458-1.126,2.261-1.937,2.261h-3.864s-.6-1.03.845-1.34,1.984-2.03,1.894-3.626a28.255,28.255,0,0,1,.135-3.724l3.062-.709Z" transform="translate(-2136.399 -1663.03)" fill="#233862"/>
          <path id="Path_20815" data-name="Path 20815" d="M1932.538,1750.186s.331,3.834-.479,4.233l-10.373-.021s0-1.2,1.666-1.463,4.593-1.241,5.088-3.414S1932.538,1750.186,1932.538,1750.186Z" transform="translate(-1921.686 -1692.433)" fill="#233862"/>
          <path id="Path_20816" data-name="Path 20816" d="M1940.553,1266.726s.547,6.721,1.19,14.8c.874,10.974,1.925,24.455,2.029,27.009.18,4.435.9,11.528.9,11.528s1.71,1.685,5.133.975a114.455,114.455,0,0,0,3.921-20.84c.014-.176.027-.353.041-.53.81-10.906,2.071-33.873,2.071-33.873Z" transform="translate(-1938.459 -1263.135)" fill="#f99746"/>
          <path id="Path_20817" data-name="Path 20817" d="M1940.553,1266.726s.547,6.721,1.19,14.8l11.985,18.672c.014-.176.027-.353.041-.53.81-10.906,2.071-33.873,2.071-33.873Z" transform="translate(-1938.459 -1263.135)" fill="#ef7e29"/>
          <path id="Path_20818" data-name="Path 20818" d="M1963.059,1246.221s9.861,24.341,16.345,35.78,8.51,14.631,8.51,14.631,3.715-1.463,4.053-2.46c0,0-2.479-22.083-6.822-27.466-2.454-3.042-5.336-12.17-5.471-15.363s-.878-9.51-.878-9.51Z" transform="translate(-1958.466 -1241.832)" fill="#f99746"/>
        </g>
        <path id="Path_20819" data-name="Path 20819" d="M1955.756,888.272s-6.607,3.351-10.476,2.233a9.081,9.081,0,0,1,2.562-2.134c-.148-.769-.265-1.437-.335-2a18.6,18.6,0,0,1-.2-2.05l2.533-2.075,2.4-1.986A9.837,9.837,0,0,0,1955.756,888.272Z" transform="translate(-1904.784 -871.426)" fill="#ffb27d"/>
        <path id="Path_20820" data-name="Path 20820" d="M1935.636,969.95a27.226,27.226,0,0,1-8.148,3.51c-3.486.827-7.771.583-9.2.8a.6.6,0,0,1-.418-.106c-.112-.057-.745-4.31-1.378-9.677-.028-.216-.058-.434-.07-.652l-.01-.073c-.246-2.1-.462-4.3-.649-6.511-.153-1.719-.279-3.419-.366-5.016-.11-2-.155-3.833-.11-5.343.02-.69.061-1.31.122-1.849a13.151,13.151,0,0,1,3.281-7.043l1.168-1.329a6.406,6.406,0,0,0,4.042-1.032c1.427-.939,2.966-1.949,3.257-1.781,2.186,1.2,3.967,4.3,5.238,8.391a46.748,46.748,0,0,1,1.646,7.863c.115.879.213,1.781.288,2.678.015.166.027.332.04.5.172,2.454.452,4.755.762,6.808.418,2.771.894,5.091,1.23,6.726.169.832.3,1.475.374,1.936C1936.8,969.15,1935.995,969.726,1935.636,969.95Z" transform="translate(-1878.101 -919.055)" fill="#2b478b"/>
        <path id="Path_20821" data-name="Path 20821" d="M1968.523,898.237a8.843,8.843,0,0,1-4.818,4.029,18.6,18.6,0,0,1-.2-2.05l2.533-2.075Z" transform="translate(-1920.982 -887.327)" fill="#ed985f"/>
        <path id="Path_20822" data-name="Path 20822" d="M1942.209,832.813s6.384.915,6.9-3.009,1.694-6.449-2.36-7.2-5.046.646-5.543,1.914S1940.562,832.474,1942.209,832.813Z" transform="translate(-1900.865 -819.989)" fill="#ffb27d"/>
        <path id="Path_20823" data-name="Path 20823" d="M1934.018,802.784c.056-.067.188-.124.485-.146a1.2,1.2,0,0,0-.557-.145,1.492,1.492,0,0,0-1.017-1.3.89.89,0,0,1,.444.633c-.839-.828-2.612-1.407-7.481-.926-6.417.635-4.217,4.708-3.375,5.182s2.91-.912,4.463-.82,1.892,2.327,2.424,2.624.314-.243,1.02-.578.8.842.606,1.613.807,1.763.807,1.763l.967-1.084c.967-1.084,1.809-5.609,1.341-6.561C1934.1,802.955,1934.061,802.87,1934.018,802.784Z" transform="translate(-1883.61 -800.726)" fill="#2c3a64"/>
        <path id="Path_20824" data-name="Path 20824" d="M1926.481,1051.751s-5.383,4.1-11.089,4.993c-.11-2-.155-3.833-.11-5.343Z" transform="translate(-1878.101 -1023.573)" fill="#233862"/>
        <g id="Group_4384" data-name="Group 4384" transform="translate(9.429 18.436)">
          <path id="Path_20825" data-name="Path 20825" d="M1671.316,978.86c-.085-.091-1.182-3.761-3.081-3.493-1.238.175-3.263.891-2.725,2.523.211.642,3.985,2.851,3.985,2.851Z" transform="translate(-1665.421 -974.403)" fill="#ffb27d"/>
          <path id="Path_20826" data-name="Path 20826" d="M1735.742,968.624a4.415,4.415,0,0,1-.462,7.83l-.2.085c-5.054,2.027-21.987,2.122-23.5,1.878s-11.615-4.952-11.615-4.952.7-2.547,2.135-2.948c0,0,10.8,2.738,11.572,2.553s16.825-7.784,19.559-6C1733.947,967.536,1734.832,968.079,1735.742,968.624Z" transform="translate(-1696.124 -966.796)" fill="#2b478b"/>
        </g>
      </g>
      <g id="Group_4386" data-name="Group 4386" transform="translate(254.775 174.913)">
        <path id="Path_20827" data-name="Path 20827" d="M2568.576,1740.208a3.576,3.576,0,0,1-3.563,3.563h-16.824a3.562,3.562,0,0,1,0-7.125h16.824A3.573,3.573,0,0,1,2568.576,1740.208Z" transform="translate(-2544.627 -1736.646)" fill="#ef7e29"/>
        <path id="Path_20828" data-name="Path 20828" d="M2559.9,1740.208a3.573,3.573,0,0,1-3.562,3.563h-8.147a3.562,3.562,0,0,1,0-7.125h8.147A3.572,3.572,0,0,1,2559.9,1740.208Z" transform="translate(-2544.627 -1736.646)" fill="#f99746"/>
        <path id="Rectangle_11362" data-name="Rectangle 11362" d="M.562,0H16.5a.562.562,0,0,1,.562.562v0a.562.562,0,0,1-.562.562H.562A.562.562,0,0,1,0,.562v0A.562.562,0,0,1,.562,0Z" transform="translate(4.118 0.79)" fill="#ffe2cc" opacity="0.5"/>
      </g>
<!--       <rect id="Rectangle_11363" data-name="Rectangle 11363" width="302.73" height="1.264" rx="0.632" transform="translate(0.488 181.893)" fill="#2e3552"/> -->
    </g>
  </g>
</svg>
