<svg xmlns="http://www.w3.org/2000/svg" width="42.302" height="47.008" viewBox="0 0 42.302 47.008"><g transform="translate(-25.627)"><path d="M59.174,23.087h3.279A1.346,1.346,0,0,0,63.8,21.742V18.463a1.346,1.346,0,0,0-1.344-1.344H59.174a1.346,1.346,0,0,0-1.344,1.344v3.279A1.346,1.346,0,0,0,59.174,23.087Zm.033-4.591h3.213v3.213H59.207Zm-.033,13.313h3.279A1.346,1.346,0,0,0,63.8,30.464V27.185a1.346,1.346,0,0,0-1.344-1.344H59.174a1.346,1.346,0,0,0-1.344,1.344v3.279A1.346,1.346,0,0,0,59.174,31.809Zm.033-4.591h3.213v3.213H59.207Zm-9.39-4.132H53.1a1.346,1.346,0,0,0,1.344-1.344V18.463A1.346,1.346,0,0,0,53.1,17.119H49.817a1.346,1.346,0,0,0-1.344,1.344v3.279A1.346,1.346,0,0,0,49.817,23.087ZM49.85,18.5h3.213v3.213H49.85ZM34.382,34.154H31.1A1.346,1.346,0,0,0,29.758,35.5v3.279A1.346,1.346,0,0,0,31.1,40.122h3.279a1.346,1.346,0,0,0,1.344-1.344V35.5A1.346,1.346,0,0,0,34.382,34.154Zm-.033,4.591H31.136V35.531h3.213Zm.033-21.626H31.1a1.346,1.346,0,0,0-1.344,1.344v3.279A1.346,1.346,0,0,0,31.1,23.087h3.279a1.346,1.346,0,0,0,1.344-1.344V18.463A1.346,1.346,0,0,0,34.382,17.119Zm-.033,4.591H31.136V18.5h3.213ZM49.817,31.6H53.1a1.346,1.346,0,0,0,1.344-1.344V26.981A1.346,1.346,0,0,0,53.1,25.637H49.817a1.346,1.346,0,0,0-1.344,1.344V30.26A1.346,1.346,0,0,0,49.817,31.6Zm.033-4.591h3.213v3.213H49.85ZM64.482,3.147H61.538V2.094A2.1,2.1,0,0,0,59.444,0h-.316a2.1,2.1,0,0,0-2.094,2.094V3.147H36.523V2.094A2.1,2.1,0,0,0,34.429,0h-.316a2.1,2.1,0,0,0-2.094,2.094V3.147H29.075a3.451,3.451,0,0,0-3.448,3.448V43.565a3.447,3.447,0,0,0,3.443,3.443H64.486a3.447,3.447,0,0,0,3.443-3.443V6.594a3.452,3.452,0,0,0-3.448-3.448ZM58.411,2.094a.718.718,0,0,1,.717-.717h.316a.718.718,0,0,1,.717.717V3.147h-1.75Zm-25.015,0a.718.718,0,0,1,.717-.717h.316a.718.718,0,0,1,.717.717V3.147H33.4V2.094ZM66.552,43.565a2.068,2.068,0,0,1-2.066,2.066H29.07A2.068,2.068,0,0,1,27,43.565v0a3.43,3.43,0,0,0,2.07.693H56.993a3.425,3.425,0,0,0,2.438-1.01l7.121-7.121ZM58.728,42a2.945,2.945,0,0,0,.083-.694v-4.6a1.574,1.574,0,0,1,1.572-1.572h4.6a2.945,2.945,0,0,0,.694-.083Zm7.824-29.012H37.211a.689.689,0,1,0,0,1.377H66.552V32.187a1.574,1.574,0,0,1-1.572,1.572h-4.6a2.953,2.953,0,0,0-2.949,2.949v4.6a1.574,1.574,0,0,1-1.572,1.572H29.075A2.073,2.073,0,0,1,27,40.806V14.364h7.453a.689.689,0,1,0,0-1.377H27V6.594a2.073,2.073,0,0,1,2.07-2.07h2.944V6.549a2.1,2.1,0,0,0,2.094,2.094.689.689,0,1,0,0-1.377.718.718,0,0,1-.717-.717V4.524H57.034V6.549a2.1,2.1,0,0,0,2.094,2.094.689.689,0,0,0,0-1.377.718.718,0,0,1-.717-.717V4.524h6.071a2.073,2.073,0,0,1,2.07,2.07ZM34.382,25.637H31.1a1.346,1.346,0,0,0-1.344,1.344V30.26A1.346,1.346,0,0,0,31.1,31.6h3.279a1.346,1.346,0,0,0,1.344-1.344V26.981A1.346,1.346,0,0,0,34.382,25.637Zm-.033,4.591H31.136V27.014h3.213Zm6.111-7.141h3.279a1.346,1.346,0,0,0,1.344-1.344V18.463a1.346,1.346,0,0,0-1.344-1.344H40.46a1.346,1.346,0,0,0-1.344,1.344v3.279A1.346,1.346,0,0,0,40.46,23.087Zm.033-4.591h3.213v3.213H40.493Zm9.356,20.249a.689.689,0,0,0-1.376.033,1.346,1.346,0,0,0,1.344,1.344H53.1a1.346,1.346,0,0,0,1.344-1.344V35.5A1.346,1.346,0,0,0,53.1,34.154H49.817A1.346,1.346,0,0,0,48.473,35.5v.946a.689.689,0,0,0,1.377,0v-.913h3.213v3.213ZM40.46,31.6h3.279a1.346,1.346,0,0,0,1.344-1.344V26.981a1.346,1.346,0,0,0-1.344-1.344H40.46a1.346,1.346,0,0,0-1.344,1.344V30.26A1.346,1.346,0,0,0,40.46,31.6Zm.033-4.591h3.213v3.213H40.493ZM40.46,40.122h3.279a1.346,1.346,0,0,0,1.344-1.344V35.5a1.346,1.346,0,0,0-1.344-1.344H40.46A1.346,1.346,0,0,0,39.116,35.5v3.279A1.346,1.346,0,0,0,40.46,40.122Zm.033-4.591h3.213v3.213H40.493Z" fill="#8b8b8b"/></g></svg>