<svg xmlns="http://www.w3.org/2000/svg" width="40.86" height="30.645" viewBox="0 0 40.86 30.645"><g opacity="0.3"><path d="M32.347,75.961V67.4A3.408,3.408,0,0,0,28.942,64H3.4A3.408,3.408,0,0,0,0,67.4V84.43a3.408,3.408,0,0,0,3.405,3.4H22.5a9.358,9.358,0,0,0,13.683,5.556.851.851,0,0,0-.853-1.473,7.662,7.662,0,1,1,3.831-6.637v.851a1.7,1.7,0,1,1-3.4,0V82.727a.848.848,0,0,0-1.439-.612,4.255,4.255,0,1,0,.36,5.969,3.4,3.4,0,0,0,6.187-1.952v-.851A9.373,9.373,0,0,0,32.347,75.961ZM3.405,65.7H28.942c.035,0,.065.018.1.02L16.874,75.711a1.438,1.438,0,0,1-1.343.043L3.306,65.723C3.341,65.72,3.37,65.7,3.405,65.7Zm27.24,10.258a9.373,9.373,0,0,0-8.512,9.321c0,.287.018.57.043.851H3.405a1.7,1.7,0,0,1-1.7-1.7V67.4a1.685,1.685,0,0,1,.144-.677l12.68,10.4a2.995,2.995,0,0,0,3.238.037.827.827,0,0,0,.137-.092L30.5,66.728a1.685,1.685,0,0,1,.144.677v8.555ZM31.5,87.835a2.554,2.554,0,1,1,2.554-2.554A2.557,2.557,0,0,1,31.5,87.835Z" transform="translate(0 -64)" fill="#0a0a0a"/></g></svg>