<svg xmlns="http://www.w3.org/2000/svg" width="60.619" height="44.178" viewBox="0 0 60.619 44.178"><g transform="translate(-638.553 -738.674)"><g transform="translate(638.553 738.674)"><path d="M229.388,283.227a.888.888,0,0,0-.888.888v1.8a.888.888,0,0,0,1.776,0v-1.8A.888.888,0,0,0,229.388,283.227Zm0,0" transform="translate(-201.446 -249.693)" fill="#7b7b7b"/><path d="M90.342,171.563H86.886a1.482,1.482,0,0,0-1.48,1.48v8.914a1.482,1.482,0,0,0,1.48,1.48h3.456a1.482,1.482,0,0,0,1.48-1.48v-8.914A1.482,1.482,0,0,0,90.342,171.563Zm-.3,10.1H87.182v-8.322h2.864Zm0,0" transform="translate(-75.294 -151.25)" fill="#7b7b7b"/><path d="M377.342,171.563h-3.456a1.482,1.482,0,0,0-1.48,1.48v8.914a1.482,1.482,0,0,0,1.48,1.48h3.456a1.482,1.482,0,0,0,1.48-1.48v-8.914A1.482,1.482,0,0,0,377.342,171.563Zm-.3,10.1h-2.864v-8.322h2.864Zm0,0" transform="translate(-328.315 -151.25)" fill="#7b7b7b"/><path d="M227.563,111.2h-.774a3.488,3.488,0,0,0-3.484,3.484v3.375a1.279,1.279,0,0,0,1.277,1.277h5.187a1.279,1.279,0,0,0,1.277-1.277v-3.375A3.488,3.488,0,0,0,227.563,111.2Zm-2.483,6.361v-2.877a1.71,1.71,0,0,1,1.708-1.708h.774a1.71,1.71,0,0,1,1.708,1.708v2.877Zm0,0" transform="translate(-196.866 -98.034)" fill="#7b7b7b"/><path d="M59.731,42.4H55.557V16.193h3.582a1.176,1.176,0,0,0,1.026-1.863L52.9,2.838a2.09,2.09,0,0,0-1.658-.914h-18.7L31.371.509a1.361,1.361,0,0,0-2.123,0L28.075,1.924H9.376a2.091,2.091,0,0,0-1.659.914L.454,14.33a1.225,1.225,0,0,0-.077,1.257,1.225,1.225,0,0,0,1.1.606H5.062V35.135a4.668,4.668,0,0,0-1.395,4.1H3.29a1.482,1.482,0,0,0-1.48,1.48V42.4H.888a.888.888,0,1,0,0,1.776H59.731a.888.888,0,1,0,0-1.776ZM56.086,11.2H40.234L39.057,9.779H55.188ZM53.168,6.583,54.066,8H37.584L36.406,6.583ZM51.234,3.7a.4.4,0,0,1,.172.095l.64,1.012H34.934L34.016,3.7ZM7.452,6.583h5.927a.888.888,0,1,0,0-1.776H8.574l.64-1.012A.408.408,0,0,1,9.385,3.7H26.6l-.918,1.107H17.523a.888.888,0,0,0,0,1.776h6.69L23.035,8H6.553Zm-2.021,3.2H21.563L20.385,11.2H4.533ZM2.5,14.417l.911-1.441h15.5l-1.195,1.441Zm17.127,19.37a4.554,4.554,0,0,0-2.26-.6,4.631,4.631,0,0,0-3.911,2.186,3.542,3.542,0,0,0-1.637.068,4.713,4.713,0,0,0-3.521-1.6,4.665,4.665,0,0,0-1.46.234V16.193h9.407a1.127,1.127,0,0,0,.9,1.909h2.483ZM9.263,39.238H5.478a2.906,2.906,0,0,1,4.773-2.869A3.526,3.526,0,0,0,9.24,38.843,3.477,3.477,0,0,0,9.263,39.238ZM19.627,42.4H3.586V41.014H19.627Zm0-3.164H11.062a1.735,1.735,0,0,1-.046-.395,1.761,1.761,0,0,1,2.513-1.594.888.888,0,0,0,1.208-.483,2.814,2.814,0,0,1,4.89-.664ZM18.442,16.326,30.31,2.011,42.177,16.326H40.611l-9.618-11.6a.888.888,0,0,0-1.367,0l-9.618,11.6ZM34.07,42.4H26.55V28.62h7.52Zm19.712,0H40.992V31.679a.888.888,0,1,0-1.776,0V42.4H35.846V28.324a1.482,1.482,0,0,0-1.48-1.48H26.254a1.482,1.482,0,0,0-1.48,1.48V42.4H21.4V17.426L30.31,6.683l8.907,10.743v10.05a.888.888,0,1,0,1.776,0V18.1h2.483a1.127,1.127,0,0,0,.9-1.909h3.458a.888.888,0,1,0,0-1.776H42.9l-1.195-1.441h15.5l.911,1.441H52.095a.888.888,0,1,0,0,1.776h1.687Zm0,0" transform="translate(0 0)" fill="#7b7b7b"/></g></g></svg>