<svg xmlns="http://www.w3.org/2000/svg" width="57.292" height="57.292" viewBox="0 0 57.292 57.292"><path d="M49.931,16.754a10.175,10.175,0,0,0-10.12-9.285H37.963V1.924A.924.924,0,0,0,37.039,1H13.013a.922.922,0,0,0-.653.271L1.271,12.36A.922.922,0,0,0,1,13.013V47.2a.913.913,0,0,0,.675.874A6.418,6.418,0,0,0,1,50.907v6.461a.924.924,0,0,0,.924.924H29.646a.924.924,0,0,0,.924-.924V50.907a6.464,6.464,0,0,0-5.312-6.364l-4.539-.825a8.34,8.34,0,0,0,2.9-3.907H24.1a3.685,3.685,0,0,0,1.848-6.879V29.646a6.476,6.476,0,0,0-6.469-6.469H12.089A6.476,6.476,0,0,0,5.62,29.646v3.286a3.685,3.685,0,0,0,1.848,6.879h.485a8.34,8.34,0,0,0,2.9,3.907l-4.539.825a6.425,6.425,0,0,0-3.463,1.868V13.937H13.013a.924.924,0,0,0,.924-.924V2.848H36.115v4.62h-8.5l-2-1.639a.923.923,0,0,0-1.171,0L14.275,14.146l1.171,1.43,2.187-1.789V21.33a.924.924,0,0,0,.924.924H31.494a.924.924,0,0,0,.924-.924V13.787l2.187,1.789,1.171-1.43-5.9-4.829h6.241V46.28h-3.7v1.848h4.62a.924.924,0,0,0,.924-.924V9.317h1.848a8.329,8.329,0,0,1,8.27,7.444,9.235,9.235,0,0,0-2.726,17.65v2.628a.92.92,0,0,0,.271.653l1.195,1.195-1.195,1.195a.923.923,0,0,0,0,1.307l1.195,1.195-1.195,1.195a.92.92,0,0,0-.271.653V47.2a.925.925,0,0,0,.411.769l2.772,1.848a.925.925,0,0,0,1.026,0l2.772-1.848a.925.925,0,0,0,.411-.769V34.411a9.234,9.234,0,0,0-2.817-17.657Zm-31.544,28.6a2.756,2.756,0,0,1-5.2,0ZM24.1,37.963h-.055a8.256,8.256,0,0,0,.055-.924V34.267a1.848,1.848,0,1,1,0,3.7ZM7.469,29.646a4.626,4.626,0,0,1,4.62-4.62h7.393a4.626,4.626,0,0,1,4.62,4.62v2.772H15.244l-1.577-1.577a.923.923,0,0,0-1.307,0l-1.577,1.577H7.469Zm0,8.317a1.848,1.848,0,1,1,0-3.7v2.772a8.256,8.256,0,0,0,.055.924Zm1.848-.924V34.267h1.848A.922.922,0,0,0,11.818,34L13.013,32.8,14.208,34a.922.922,0,0,0,.653.271h7.393v2.772a6.469,6.469,0,1,1-12.937,0ZM6.641,46.361l4.664-.847a4.6,4.6,0,0,0,8.959,0l4.664.847a4.621,4.621,0,0,1,3.794,4.547v5.537h-3.7V50.9H23.178v5.544H8.393V50.9H6.544v5.544h-3.7V50.907a4.619,4.619,0,0,1,3.793-4.546ZM4.155,12.089l7.934-7.934v7.934Zm22.719,8.317h-3.7v-3.7h3.7Zm3.7,0H28.722v-4.62a.924.924,0,0,0-.924-.924H22.254a.924.924,0,0,0-.924.924v4.62H19.481V12.275l5.544-4.536,5.544,4.536Zm19.406,2.105a1.848,1.848,0,1,1-1.848,0V24.1h1.848Zm1.54,10.4a.924.924,0,0,0-.616.871V46.709l-1.848,1.232L47.2,46.709v-1.9l1.577-1.577a.923.923,0,0,0,0-1.307l-1.195-1.195,1.195-1.195a.923.923,0,0,0,0-1.307L47.2,36.656V33.783a.922.922,0,0,0-.616-.87,7.385,7.385,0,0,1,1.54-14.292v1.916a3.7,3.7,0,1,0,1.848,0V18.621a7.384,7.384,0,0,1,1.54,14.291Z" transform="translate(-1 -1)" fill="#7b7b7b"/></svg>