<svg xmlns="http://www.w3.org/2000/svg" width="50.898" height="50.899" viewBox="0 0 50.898 50.899"><g transform="translate(-0.004 0)"><path d="M50.954,129.087l-.615-1.666c0-1.419-.535-1.544-1.954-1.544H4.987l-4.049,2.5-.876.7v.012l1.583,1.921L.062,132.758v26.011l2.853,2.642,1.126,2.456H20.555L27,162.847l3.172,1.02H48.385a2.56,2.56,0,0,0,1.788-.725l-.878-5.785,1.66-1.925V131.2l-.782-1.161Z" transform="translate(-0.052 -112.968)" fill="#97da7b"/><path d="M253.632,124.737a3.306,3.306,0,0,0,6.462,0l.253-1.17a4.723,4.723,0,0,1,.8-1.787l3.371-4.648a9.627,9.627,0,0,0,.787-1.254h-16.88a9.6,9.6,0,0,0,.787,1.253l3.371,4.648a4.726,4.726,0,0,1,.8,1.787Z" transform="translate(-222.944 -103.995)" fill="#80d261"/><path d="M50.175,199.042l-.7-4.639H7.558a2.569,2.569,0,0,1-2.569-2.569V165.878H2.633a2.569,2.569,0,0,0-2.569,2.569v26.221l2.853,2.642,1.126,2.457H20.557L27,198.746l3.172,1.02H48.387A2.56,2.56,0,0,0,50.175,199.042Z" transform="translate(-0.054 -148.867)" fill="#80d261"/><g transform="translate(0.01 16.119)"><path d="M29.607,161.415l3.339-4.235H24.905l-8.2,9.8-11.231-9.8H.062v.007l1.583,1.921L.062,160.851l12.582,10.978L.062,186.862v2.529a2.569,2.569,0,0,0,2.569,2.569h1.41l6.97-8.327,9.544,8.327h9.619l-15.1-13.178Z" transform="translate(-0.062 -157.18)" fill="#fef1da"/></g><path d="M277.186,157.18l1.208,1.666a4.719,4.719,0,0,1,.736,1.532l2.522-3.2Z" transform="translate(-248.757 -141.061)" fill="#fddeb0"/><path d="M48.386,115.878H2.632a2.569,2.569,0,0,0-2.569,2.569v1.666H50.955v-1.666A2.569,2.569,0,0,0,48.386,115.878Z" transform="translate(-0.053 -103.995)" fill="#fddeb0"/><path d="M210.257,184.5l4.766,4.158,8.792-10.5,15,13.086a2.56,2.56,0,0,0,.782-1.844v-5.866L227.874,173.3l11.72-14V157.18h-6.475Z" transform="translate(-188.692 -141.061)" fill="#fef1da"/><g transform="translate(25.479 0)"><path d="M264.516,117.132a9.614,9.614,0,0,0,.787-1.254h-16.88a9.6,9.6,0,0,0,.787,1.253l2.163,2.982h10.981Z" transform="translate(-248.423 -103.995)" fill="#fccd7f"/><path d="M265.524,0a7.471,7.471,0,0,0-6.18,11.921l3.377,4.657a6.8,6.8,0,0,1,1.143,2.558l.253,1.17a1.255,1.255,0,0,0,2.453,0l.253-1.17a6.81,6.81,0,0,1,1.143-2.558l3.377-4.657A7.471,7.471,0,0,0,265.524,0Z" transform="translate(-256.904 0)" fill="#ee6161"/><path d="M266.795,18.5a6.806,6.806,0,0,0-1.143-2.558l-3.377-4.657A7.471,7.471,0,0,1,264.69.28a7.471,7.471,0,0,0-5.345,11.895l3.377,4.657a6.8,6.8,0,0,1,1.143,2.558l.253,1.17a1.255,1.255,0,0,0,2.453,0l.253-1.17q.039-.179.087-.354Z" transform="translate(-256.904 -0.251)" fill="#e94444"/><path d="M297.085,39.57a3.538,3.538,0,1,1-.863,2.316A3.528,3.528,0,0,1,297.085,39.57Z" transform="translate(-291.32 -34.415)" fill="#f9f7f8"/></g><path d="M4.988,115.878H2.632a2.569,2.569,0,0,0-2.569,2.569v1.666H4.988v-4.236Z" transform="translate(-0.053 -103.995)" fill="#fccd7f"/><g transform="translate(0.004 16.119)"><path d="M4.935,165.148V157.18H0l.006,3.671Z" transform="translate(-0.004 -157.18)" fill="#fddeb0"/><path d="M139.947,444.032l6.148,5.364h9.618l-6.148-5.364Z" transform="translate(-125.596 -414.616)" fill="#fdf6ec"/></g><path d="M7.556,394.861a2.567,2.567,0,0,1-2.569-2.569v-3.049L.062,395.126v2.529a2.569,2.569,0,0,0,2.569,2.569h1.41l4.49-5.364Z" transform="translate(-0.052 -349.325)" fill="#fddeb0"/><path d="M139.947,444.032l6.148,5.364h9.618l-6.148-5.364Z" transform="translate(-125.592 -398.497)" fill="#fddeb0"/><g transform="translate(23.974 45.535)"><path d="M233.741,444.032l2.358,2.057,1.722-2.057Z" transform="translate(-233.741 -444.032)" fill="#fccd7f"/><path d="M442.182,448.671a2.561,2.561,0,0,0,.781-1.844v-2.795h-6.1Z" transform="translate(-416.035 -444.032)" fill="#fddeb0"/></g></g></svg>