<svg xmlns="http://www.w3.org/2000/svg" width="75.743" height="75.743" viewBox="0 0 75.743 75.743"><path d="M37.872,0A37.877,37.877,0,0,0,5.022,56.724L.143,71.877A2.959,2.959,0,0,0,3.866,75.6l15.153-4.88A37.873,37.873,0,1,0,37.872,0Zm0,69.826a31.861,31.861,0,0,1-16.914-4.841,2.961,2.961,0,0,0-2.476-.307L7.544,68.2l3.523-10.939a2.961,2.961,0,0,0-.308-2.476,31.956,31.956,0,1,1,27.113,15.04Zm3.7-31.954a3.7,3.7,0,1,1-3.7-3.7A3.7,3.7,0,0,1,41.57,37.872Zm14.794,0a3.7,3.7,0,1,1-3.7-3.7A3.7,3.7,0,0,1,56.364,37.872Zm-29.587,0a3.7,3.7,0,1,1-3.7-3.7A3.7,3.7,0,0,1,26.776,37.872Zm0,0"/></svg>