<svg xmlns="http://www.w3.org/2000/svg" width="79.169" height="71.865" viewBox="0 0 79.169 71.865"><g transform="translate(0 -23.619)"><path d="M329.517,137.417v3.808l2.807-.556v-3.251Z" transform="translate(-278.565 -96.202)" fill="#efe7e4"/><path d="M71.86,54.745l-1.444-25a4.973,4.973,0,0,0-4.678-4.678l-25-1.444a3.17,3.17,0,0,0-2.425.923L1.182,61.679a4.037,4.037,0,0,0,0,5.709L14.639,80.845,28.1,94.3a4.037,4.037,0,0,0,5.709,0L70.936,57.17A3.17,3.17,0,0,0,71.86,54.745ZM56.792,45.023a6.167,6.167,0,0,1-6.331-6.331,6.7,6.7,0,0,1,6.7-6.7,6.169,6.169,0,0,1,6.331,6.331A6.7,6.7,0,0,1,56.792,45.023Z" fill="#c8ea73"/><path d="M412.173,33.835l.671,11.619,3.3,4.94,3.238,1.2-.842-14.576a4.973,4.973,0,0,0-4.678-4.678l-2.061-.119a4.964,4.964,0,0,1,.367,1.612Z" transform="translate(-348.13 -7.274)" fill="#aad880"/><path d="M212.416,165.382a3.17,3.17,0,0,0,.923-2.425l-.071-1.231c-1.492-3.517-4.322-10.1-4.322-10.1H206.5l.471,8.147a3.17,3.17,0,0,1-.923,2.425l-37.131,37.132a4.022,4.022,0,0,1-1.555.968l2.217,2.218a4.037,4.037,0,0,0,5.709,0Z" transform="translate(-141.48 -108.212)" fill="#aad880"/><path d="M356.183,128.548c-3.757-14.023-12.933-23.337-20.89-21.206a10.056,10.056,0,0,0-5.776,4.394,6.728,6.728,0,0,0,2.807,3.251,6.792,6.792,0,0,1,4.02-3.723,4.8,4.8,0,0,1,1.247-.16c2.216,0,4.769,1.409,7.2,4.016a34.708,34.708,0,0,1,7.473,14.479,34.708,34.708,0,0,1,.768,16.275c-.953,4.143-2.915,6.9-5.384,7.56s-5.546-.744-8.443-3.855a29.087,29.087,0,0,1-4.658-6.93l-3.016,3.016c3.96,7.367,9.531,12,14.853,12a8.916,8.916,0,0,0,2.315-.3C356.651,155.226,359.94,142.571,356.183,128.548Z" transform="translate(-278.565 -70.521)" fill="#efe7e4"/><path d="M50.429,133.472a1,1,0,0,0,0,1.412l22.2,22.2a1,1,0,0,0,1.412,0l27.178-27.178a1,1,0,0,0,0-1.412l-22.2-22.2a1,1,0,0,0-1.412,0Z" transform="translate(-42.384 -69.645)" fill="#fff"/><path d="M201.917,129.906a1,1,0,0,0,0-1.412l-22.2-22.2a1,1,0,0,0-1.412,0l-.887.887,15.965,15.965a4.055,4.055,0,0,1,0,5.735l-24.129,24.129,4.073,4.073a1,1,0,0,0,1.412,0Z" transform="translate(-143.084 -69.645)" fill="#f9f6f6"/><path d="M163.933,197.8a1.991,1.991,0,0,0-2.816,0l-1.543,1.543a6.722,6.722,0,0,0-8.771,10.143l1.443,1.443a2.74,2.74,0,0,1-3.875,3.875l-1.443-1.443a2.737,2.737,0,0,1-.746-2.494,1.991,1.991,0,1,0-3.9-.8,6.707,6.707,0,0,0,1.194,5.375l-1.543,1.543a1.991,1.991,0,0,0,2.816,2.816l1.542-1.542a6.723,6.723,0,0,0,8.771-10.144l-1.443-1.443a2.74,2.74,0,1,1,3.875-3.875l1.443,1.443a2.737,2.737,0,0,1,.746,2.494,1.991,1.991,0,0,0,3.9.8,6.708,6.708,0,0,0-1.194-5.375l1.542-1.542a1.991,1.991,0,0,0,0-2.816Z" transform="translate(-119.494 -146.754)" fill="#756e78"/></g></svg>