<svg xmlns="http://www.w3.org/2000/svg" width="59.108" height="56.383" viewBox="0 0 59.108 56.383"><g transform="translate(0 -11.803)"><path d="M58.395,32.347,30.572,12.133a1.732,1.732,0,0,0-2.036,0L.714,32.347a1.732,1.732,0,0,0-.629,1.936L10.714,66.989a1.732,1.732,0,0,0,1.647,1.2H46.748a1.732,1.732,0,0,0,1.647-1.2L59.024,34.283a1.732,1.732,0,0,0-.629-1.936ZM31.286,16.933,53.609,33.151,31.286,40.4Zm-3.463,0V40.4L5.5,33.151ZM4.429,36.445,26.753,43.7l-13.8,18.989Zm11.33,28.277,13.8-18.989,13.8,18.989Zm30.392-2.036L32.356,43.7l22.323-7.253Z" transform="translate(0)" fill="#2d3741"/><path d="M274.841,66.99l10.629-32.706a1.732,1.732,0,0,0-.629-1.936L257.018,12.134A1.729,1.729,0,0,0,256,11.8V45.734l13.8,18.989H256v3.463h17.194A1.732,1.732,0,0,0,274.841,66.99ZM257.732,16.933l22.323,16.218L257.732,40.4ZM258.8,43.7l22.323-7.253L272.6,62.687Z" transform="translate(-226.446 0)" fill="#0a141e"/><path d="M141.374,165.223a1.732,1.732,0,0,1-1.732-1.732V143.584a1.732,1.732,0,0,1,.5-1.219l11.7-11.8a1.732,1.732,0,0,1,1.973-.345l19.5,9.265a1.732,1.732,0,0,1,.735,2.466l-11,18.038a1.732,1.732,0,0,1-1.109.79l-20.2,4.4A1.736,1.736,0,0,1,141.374,165.223Z" transform="translate(-123.521 -104.598)" fill="#00b4ff"/><path d="M265.979,160l11-18.038a1.732,1.732,0,0,0-.735-2.466l-19.5-9.265a1.726,1.726,0,0,0-.743-.167V162.72l8.869-1.934a1.732,1.732,0,0,0,1.109-.79Z" transform="translate(-226.446 -104.606)" fill="#0078ff"/><path d="M153.818,130.22a1.732,1.732,0,0,0-1.973.345l-.5.506V145l-10.449-3.395-.751.757a1.732,1.732,0,0,0-.5,1.219v1.258l10.631,3.454L139.642,162.93v.562a1.732,1.732,0,0,0,2.1,1.692l.645-.141,10.687-14.711,7.765,10.688,1.1-.241a1.731,1.731,0,0,0,1.109-.79l.6-.986L155.877,148.3l17.845-5.8.334-.547a1.732,1.732,0,0,0-.735-2.466l-.622-.3L154.807,145V130.69Z" transform="translate(-123.521 -104.598)" fill="#0078ff"/><path d="M264.87,160.788a1.731,1.731,0,0,0,1.109-.79l.6-.986L258.8,148.3l17.845-5.8.334-.547a1.732,1.732,0,0,0-.735-2.466l-.622-.3-17.891,5.813V130.7l-.989-.47a1.726,1.726,0,0,0-.743-.167v20.279l7.765,10.688Z" transform="translate(-226.446 -104.607)" fill="#003cff"/></g></svg>