<svg xmlns="http://www.w3.org/2000/svg" width="62.22" height="62.22" viewBox="0 0 62.22 62.22"><path d="M14.583,55.833H2.917a2.917,2.917,0,1,1,0-5.833H14.583v1.944H2.917a.972.972,0,0,0,0,1.944H14.583Z" transform="translate(0 -1.391)" fill="#7b7b7b"/><path d="M7,21H8.944V50.166H7Z" transform="translate(-0.195 -0.584)" fill="#7b7b7b"/><path d="M55,21h1.944V39.472H55Z" transform="translate(-1.53 -0.584)" fill="#7b7b7b"/><path d="M59.359,24.36a.972.972,0,0,1-.47-.122L31.166,8.943,3.442,24.239A.972.972,0,0,1,2,23.388V18.527a.972.972,0,0,1,.5-.851L30.7,2.122a.966.966,0,0,1,.939,0L59.829,17.677a.972.972,0,0,1,.5.851v4.861a.972.972,0,0,1-.972.972ZM31.166,6.861a.972.972,0,0,1,.47.122L58.387,21.741V19.1L31.166,4.082,3.944,19.1v2.64L30.7,6.982A.972.972,0,0,1,31.166,6.861Z" transform="translate(-0.056 -0.056)" fill="#7b7b7b"/><path d="M12.944,50.249H11V24.972A.972.972,0,0,1,11.972,24H25.583a.972.972,0,0,1,.972.972V39.555H24.611V25.944H12.944Z" transform="translate(-0.306 -0.667)" fill="#7b7b7b"/><path d="M49.416,37.611h-17.5A2.917,2.917,0,0,1,29,34.694V26.917A2.917,2.917,0,0,1,31.917,24h17.5a2.917,2.917,0,0,1,2.917,2.917v7.778a2.917,2.917,0,0,1-2.917,2.917Zm-17.5-11.666a.972.972,0,0,0-.972.972v7.778a.972.972,0,0,0,.972.972h17.5a.972.972,0,0,0,.972-.972V26.917a.972.972,0,0,0-.972-.972Z" transform="translate(-0.807 -0.667)" fill="#7b7b7b"/><path d="M11.944,14.3H10V4.972A.972.972,0,0,1,10.972,4H18.75a.972.972,0,0,1,.972.972V10H17.778V5.944H11.944Z" transform="translate(-0.278 -0.111)" fill="#7b7b7b"/><path d="M19.694,5.833H9.972A.972.972,0,0,1,9,4.861V.972A.972.972,0,0,1,9.972,0h9.722a.972.972,0,0,1,.972.972V4.861A.972.972,0,0,1,19.694,5.833Zm-8.75-1.944h7.778V1.944H10.944Z" transform="translate(-0.25)" fill="#7b7b7b"/><path d="M57.8,63.388H23.778a.972.972,0,0,1-.8-.415l-6.805-9.722a.972.972,0,0,1,0-1.114l6.805-9.722a.972.972,0,0,1,.8-.415H57.8a4.867,4.867,0,0,1,4.861,4.861V58.527A4.867,4.867,0,0,1,57.8,63.388Zm-33.52-1.944H57.8a2.917,2.917,0,0,0,2.917-2.917V46.861A2.917,2.917,0,0,0,57.8,43.944H24.284l-6.125,8.75Z" transform="translate(-0.445 -1.168)" fill="#7b7b7b"/><path d="M31.861,53.833H27.972A.972.972,0,0,1,27,52.861V48.972A.972.972,0,0,1,27.972,48h3.889a2.917,2.917,0,1,1,0,5.833Zm-2.917-1.944h2.917a.972.972,0,1,0,0-1.944H28.944Z" transform="translate(-0.751 -1.335)" fill="#7b7b7b"/><path d="M32.9,58.195l-1.7-4.25H28.944v3.889H27V52.972A.972.972,0,0,1,27.972,52h3.889a.972.972,0,0,1,.9.611l1.944,4.861Z" transform="translate(-0.751 -1.446)" fill="#7b7b7b"/><path d="M41.833,53.833H36.972A.972.972,0,0,1,36,52.861V49.944A1.944,1.944,0,0,1,37.944,48h4.861v1.944H37.944v1.944h3.889Z" transform="translate(-1.001 -1.335)" fill="#7b7b7b"/><path d="M42.805,57.861H37.944A1.944,1.944,0,0,1,36,55.917V53h1.944v2.917h4.861Z" transform="translate(-1.001 -1.474)" fill="#7b7b7b"/><path d="M50.833,57.722a.972.972,0,0,1-.824-.457l-3.064-4.9v5.36H45v-8.75a.972.972,0,0,1,1.8-.515l3.064,4.9V48h1.944v8.75A.972.972,0,0,1,50.833,57.722Z" transform="translate(-1.252 -1.335)" fill="#7b7b7b"/><path d="M54,48h5.833v1.944H54Z" transform="translate(-1.502 -1.335)" fill="#7b7b7b"/><path d="M56,49h1.944v8.75H56Z" transform="translate(-1.557 -1.363)" fill="#7b7b7b"/><path d="M38,25h1.944V36.666H38Z" transform="translate(-1.057 -0.695)" fill="#7b7b7b"/><path d="M42,25h1.944V36.666H42Z" transform="translate(-1.168 -0.695)" fill="#7b7b7b"/><path d="M30,30h8.75v1.944H30Z" transform="translate(-0.834 -0.834)" fill="#7b7b7b"/><path d="M43,30h8.75v1.944H43Z" transform="translate(-1.196 -0.834)" fill="#7b7b7b"/></svg>