<svg xmlns="http://www.w3.org/2000/svg" width="29.818" height="29.23" viewBox="0 0 29.818 29.23"><path d="M6.372,54.341H.877a.877.877,0,0,1,0-1.754h5.5a.877.877,0,0,1,0,1.754Z" transform="translate(0 -49.447)"/><path d="M88.153,12.537A4.017,4.017,0,1,1,92.17,8.52,4.022,4.022,0,0,1,88.153,12.537Zm0-6.28A2.263,2.263,0,1,0,90.416,8.52,2.266,2.266,0,0,0,88.153,6.257Z" transform="translate(-78.641 -4.503)"/><path d="M242.99,54.341H229.882a.877.877,0,0,1,0-1.754H242.99a.877.877,0,0,1,0,1.754Z" transform="translate(-214.048 -49.447)"/><path d="M268.446,174.808a4.017,4.017,0,1,1,4.017-4.017A4.021,4.021,0,0,1,268.446,174.808Zm0-6.28a2.263,2.263,0,1,0,2.263,2.263A2.265,2.265,0,0,0,268.446,168.528Z" transform="translate(-247.159 -156.176)"/><path d="M14.966,216.6H.877a.877.877,0,1,1,0-1.754H14.966a.877.877,0,1,1,0,1.754Z" transform="translate(0 -201.112)"/><path d="M365.978,216.6h-4.514a.877.877,0,0,1,0-1.754h4.514a.877.877,0,0,1,0,1.754Z" transform="translate(-337.037 -201.112)"/><path d="M73.13,337.071a4.017,4.017,0,1,1,4.017-4.017A4.022,4.022,0,0,1,73.13,337.071Zm0-6.28a2.263,2.263,0,1,0,2.263,2.263A2.265,2.265,0,0,0,73.13,330.791Z" transform="translate(-64.599 -307.841)"/><path d="M228.945,378.868H214.856a.877.877,0,1,1,0-1.754h14.089a.877.877,0,1,1,0,1.754Z" transform="translate(-200.004 -352.778)"/><path d="M5.391,378.867H.877a.877.877,0,0,1,0-1.754H5.391a.877.877,0,0,1,0,1.754Z" transform="translate(0 -352.777)"/></svg>