<svg xmlns="http://www.w3.org/2000/svg" width="71.92" height="62" viewBox="0 0 71.92 62"><g transform="translate(0 -35.311)"><path d="M19.9,151.808a22.7,22.7,0,0,1,0-32.121l-9.362-9.362a35.937,35.937,0,0,0,0,50.846,2.107,2.107,0,0,0,2.98,0l6.382-6.382a2.107,2.107,0,0,0,0-2.98Z" transform="translate(0 -64.477)" fill="#9bff00"/><path d="M122.086,45.848a35.937,35.937,0,0,0-50.846,0,2.108,2.108,0,0,0,0,2.98l6.382,6.382a2.108,2.108,0,0,0,2.98,0,22.7,22.7,0,0,1,32.121,0,2.107,2.107,0,0,0,2.98,0l6.382-6.382A2.107,2.107,0,0,0,122.086,45.848Z" transform="translate(-60.703)" fill="#ffe600"/><path d="M281.423,45.848A35.723,35.723,0,0,0,256,35.311V48.553a22.564,22.564,0,0,1,16.061,6.658,2.107,2.107,0,0,0,2.98,0l6.382-6.382a2.108,2.108,0,0,0,0-2.98Z" transform="translate(-220.04)" fill="#ffaa32"/><path d="M366.562,151.808a22.7,22.7,0,0,0,0-32.121l9.362-9.362a35.937,35.937,0,0,1,0,50.846,2.107,2.107,0,0,1-2.98,0l-6.382-6.382a2.107,2.107,0,0,1,0-2.98Z" transform="translate(-314.541 -64.477)" fill="#ff1e5a"/><path d="M13.242,135.743A22.565,22.565,0,0,1,19.9,119.687l-9.362-9.362A35.72,35.72,0,0,0,0,135.748Z" transform="translate(0 -64.477)" fill="#00d200"/><path d="M366.562,307.344a22.59,22.59,0,0,0,6.658-16.065l13.242,0a35.72,35.72,0,0,1-10.537,25.423,2.107,2.107,0,0,1-2.98,0l-6.382-6.382A2.107,2.107,0,0,1,366.562,307.344Z" transform="translate(-314.541 -220.012)" fill="#c40050"/><path d="M215.488,133.131a6.628,6.628,0,0,1-6.621-6.621c0-4.612,4.1-23.18,4.564-25.283a2.107,2.107,0,0,1,4.114,0c.467,2.1,4.564,20.671,4.564,25.283A6.629,6.629,0,0,1,215.488,133.131Z" transform="translate(-179.528 -55.239)" fill="#003c50"/><path d="M256,133.13V99.577a2.107,2.107,0,0,1,2.057,1.65c.467,2.1,4.564,20.671,4.564,25.283A6.629,6.629,0,0,1,256,133.13Z" transform="translate(-220.04 -55.239)" fill="#001428"/></g></svg>