<svg xmlns="http://www.w3.org/2000/svg" width="48.033" height="47.543" viewBox="0 0 48.033 47.543">
  <g id="_25-percent" data-name="25-percent" transform="translate(-0.001 0)">
    <path id="Path_768" data-name="Path 768" d="M28.827,11.217,32.245,9.06l2.672,3.033L38.8,10.986l1.709,3.663,4.042.033.608,4,3.869,1.17-.542,4.005,3.382,2.213-1.649,3.69,2.622,3.076-2.622,3.076,1.649,3.69-3.382,2.213.542,4.005-3.869,1.17-.608,4-4.042.033L38.8,54.678l-3.887-1.107L32.245,56.6l-3.418-2.157L25.409,56.6l-2.672-3.033-3.887,1.107-1.709-3.663L13.1,50.982l-.608-4-3.868-1.17.542-4.005L5.784,39.6l1.649-3.69L4.811,32.832l2.622-3.076-1.649-3.69,3.382-2.213-.542-4.005,3.868-1.17.608-4,4.042-.033,1.709-3.662,3.887,1.107L25.409,9.06Z" transform="translate(-4.81 -9.06)" fill="#f8385d"/>
    <g id="Group_356" data-name="Group 356" transform="translate(8.461 13.449)">
      <path id="Path_769" data-name="Path 769" d="M133.166,157.808l2.07-2.1q.807-.837,1.2-1.307a3.984,3.984,0,0,0,.58-.866,2,2,0,0,0,.184-.851,1.166,1.166,0,0,0-.345-.947,1.592,1.592,0,0,0-1.035-.286,14.542,14.542,0,0,0-2.143.176l-.352.044-.1-1.571a10.124,10.124,0,0,1,2.98-.44q3.083,0,3.083,2.775a3.916,3.916,0,0,1-.2,1.3,3.958,3.958,0,0,1-.661,1.145,12.468,12.468,0,0,1-1.314,1.358l-1.688,1.527h4.022v1.762h-6.283Z" transform="translate(-128.987 -149.264)" fill="#fff"/>
      <path id="Path_770" data-name="Path 770" d="M216.356,161.187a10.785,10.785,0,0,1-1.417-.286l-.529-.132.22-1.5a19.078,19.078,0,0,0,2.965.279,1.335,1.335,0,0,0,1.483-1.483q0-1.351-1.233-1.351a6.837,6.837,0,0,0-1.732.191l-.22.059-1.2-.279.264-5.241h5.916v1.762H216.54l-.25,2.1a4.8,4.8,0,0,1,1.732-.352q3.141,0,3.142,2.921a3.5,3.5,0,0,1-.866,2.54,3.252,3.252,0,0,1-2.452.9,10.551,10.551,0,0,1-1.49-.125Z" transform="translate(-202.231 -150.875)" fill="#fff"/>
      <path id="Path_771" data-name="Path 771" d="M292.526,148.159q0-2.128,1.762-2.129t1.762,2.129q0,2.144-1.762,2.143T292.526,148.159Zm2.085,0q0-.954-.323-.954t-.323.954q0,.969.323.969T294.611,148.159Zm-.455,7.854,3.45-10.379,1.072.382-3.45,10.349Zm2.657-2.084q0-2.128,1.762-2.129t1.762,2.129q0,2.144-1.762,2.143T296.813,153.928Zm2.084,0q0-.954-.323-.954t-.323.954q0,.969.323.969T298.9,153.928Z" transform="translate(-272.654 -145.634)" fill="#fff"/>
      <path id="Path_772" data-name="Path 772" d="M93.615,287.563a1.256,1.256,0,0,1,.614.728,4.326,4.326,0,0,1,.174,1.377,4.923,4.923,0,0,1-.17,1.448,1.342,1.342,0,0,1-.614.788,2.569,2.569,0,0,1-1.267.256H90.725v-4.828h1.626A2.781,2.781,0,0,1,93.615,287.563Zm-.579,3.561a.876.876,0,0,0,.291-.529,5.445,5.445,0,0,0,.067-.983,3.891,3.891,0,0,0-.071-.859.669.669,0,0,0-.291-.429,1.31,1.31,0,0,0-.682-.138H91.7v3.124h.646A1.062,1.062,0,0,0,93.036,291.123Z" transform="translate(-90.725 -273.379)" fill="#fff"/>
      <path id="Path_773" data-name="Path 773" d="M136.725,287.331h.98v4.828h-.98Z" transform="translate(-132.195 -273.378)" fill="#fff"/>
      <path id="Path_774" data-name="Path 774" d="M154.99,291.293l-.256-.05.1-.76a11.831,11.831,0,0,0,1.456.128q.752,0,.753-.625a.409.409,0,0,0-.2-.376,2.977,2.977,0,0,0-.667-.256,3.721,3.721,0,0,1-.884-.348,1.237,1.237,0,0,1-.469-.454,1.332,1.332,0,0,1-.146-.653,1.318,1.318,0,0,1,.433-1.072,1.84,1.84,0,0,1,1.214-.362,5.358,5.358,0,0,1,.632.039q.326.039.959.153l-.078.774a13.734,13.734,0,0,0-1.413-.114q-.774,0-.774.511a.372.372,0,0,0,.128.291,1.043,1.043,0,0,0,.32.188q.192.075.646.217a3.391,3.391,0,0,1,.76.327,1.024,1.024,0,0,1,.391.422,1.508,1.508,0,0,1,.121.65,1.443,1.443,0,0,1-.451,1.143,1.775,1.775,0,0,1-1.218.4,6.7,6.7,0,0,1-1.356-.17Z" transform="translate(-148.38 -272.597)" fill="#fff"/>
      <path id="Path_775" data-name="Path 775" d="M195.339,291.194a1.367,1.367,0,0,1-.564-.8,5.248,5.248,0,0,1-.153-1.409,5.319,5.319,0,0,1,.167-1.505,1.321,1.321,0,0,1,.557-.778,2.108,2.108,0,0,1,1.093-.238,6.2,6.2,0,0,1,1.441.192l-.028.781a7.972,7.972,0,0,0-1.143-.107,1.29,1.29,0,0,0-.675.142.755.755,0,0,0-.316.465,3.619,3.619,0,0,0-.089.912v.263a4.552,4.552,0,0,0,.089.912.673.673,0,0,0,.295.437,1.322,1.322,0,0,0,.675.135,8.244,8.244,0,0,0,1.164-.1l.021.8a6.682,6.682,0,0,1-1.356.163A2.148,2.148,0,0,1,195.339,291.194Z" transform="translate(-184.391 -272.597)" fill="#fff"/>
      <path id="Path_776" data-name="Path 776" d="M233.956,291.2a1.482,1.482,0,0,1-.635-.806,4.24,4.24,0,0,1-.2-1.409,4.332,4.332,0,0,1,.2-1.424,1.534,1.534,0,0,1,.635-.824,2.648,2.648,0,0,1,2.343,0,1.536,1.536,0,0,1,.635.824,5.266,5.266,0,0,1,.007,2.815,1.5,1.5,0,0,1-.628.813,2.231,2.231,0,0,1-1.186.273A2.27,2.27,0,0,1,233.956,291.2Zm1.771-.749a.874.874,0,0,0,.305-.511,4.066,4.066,0,0,0,.089-.955,4.006,4.006,0,0,0-.092-.962.967.967,0,0,0-.309-.532,1.1,1.1,0,0,0-1.186,0,.965.965,0,0,0-.309.532,4.008,4.008,0,0,0-.092.962,4.286,4.286,0,0,0,.078.909.945.945,0,0,0,.295.532.931.931,0,0,0,.621.185.994.994,0,0,0,.6-.16Z" transform="translate(-219.102 -272.598)" fill="#fff"/>
      <path id="Path_777" data-name="Path 777" d="M282.319,291.826a1.686,1.686,0,0,1-.454-1.3v-3.2h.98v3.216a.859.859,0,0,0,1.718,0v-3.216h.98v3.2a1.687,1.687,0,0,1-.454,1.3,2.5,2.5,0,0,1-2.769,0Z" transform="translate(-263.043 -273.379)" fill="#fff"/>
      <path id="Path_778" data-name="Path 778" d="M333.322,287.331v4.828H331.71l-1.207-3.976h-.071v3.976h-.98v-4.828h1.654l1.164,3.976h.071v-3.976Z" transform="translate(-305.944 -273.378)" fill="#fff"/>
      <path id="Path_779" data-name="Path 779" d="M376.313,288.2h-1.292v-.866h3.55v.866h-1.278v3.962h-.98Z" transform="translate(-347.025 -273.378)" fill="#fff"/>
    </g>
  </g>
</svg>
