<svg xmlns="http://www.w3.org/2000/svg" width="20.466" height="20.318" viewBox="0 0 20.466 20.318">
            <g id="Layer_2_16_" transform="translate(0 0)">
              <g id="Group_357" data-name="Group 357" transform="translate(0 0)">
                <path id="Path_780" data-name="Path 780" d="M253.852,423.18c-.169.042-.341.079-.512.111a.823.823,0,0,0,.3,1.618c.2-.038.408-.082.609-.132a.823.823,0,0,0-.4-1.6Z" transform="translate(-241.551 -404.613)" fill="#f8385d"/>
                <path id="Path_781" data-name="Path 781" d="M412.7,137.831a.823.823,0,0,0,1.562-.517c-.065-.2-.137-.394-.214-.586a.823.823,0,1,0-1.528.611C412.583,137.5,412.644,137.665,412.7,137.831Z" transform="translate(-394.314 -130.292)" fill="#f8385d"/>
                <path id="Path_782" data-name="Path 782" d="M321.724,394.048c-.145.1-.295.189-.446.275a.823.823,0,1,0,.822,1.425c.179-.1.358-.214.531-.328a.823.823,0,0,0-.907-1.373Z" transform="translate(-306.75 -376.656)" fill="#f8385d"/>
                <path id="Path_783" data-name="Path 783" d="M429.279,208.1a.823.823,0,1,0-1.644.065c.007.174.009.35,0,.523a.823.823,0,1,0,1.645.036C429.289,208.519,429.287,208.309,429.279,208.1Z" transform="translate(-408.821 -198.265)" fill="#f8385d"/>
                <path id="Path_784" data-name="Path 784" d="M378.431,344.233a.822.822,0,0,0-1.152.164c-.1.139-.214.277-.327.409a.823.823,0,0,0,.093,1.16c.02.017.04.032.06.046a.823.823,0,0,0,1.1-.139c.134-.158.266-.322.39-.488A.823.823,0,0,0,378.431,344.233Z" transform="translate(-360.181 -329.006)" fill="#f8385d"/>
                <path id="Path_785" data-name="Path 785" d="M415.009,279.389a.823.823,0,0,0-1.031.539c-.052.166-.11.332-.172.5a.823.823,0,0,0,1.538.586c.074-.194.142-.392.2-.589A.823.823,0,0,0,415.009,279.389Z" transform="translate(-395.549 -267.136)" fill="#f8385d"/>
                <path id="Path_786" data-name="Path 786" d="M8.711,20.373A8.5,8.5,0,0,1,6.6,19.7l-.023-.013c-.158-.074-.315-.154-.468-.237h0a8.777,8.777,0,0,1-.819-.512A8.585,8.585,0,0,1,5.325,4.877l.029-.021a8.6,8.6,0,0,1,9.639-.077l-.643.929c-.179.259-.069.447.244.419l2.792-.25a.46.46,0,0,0,.416-.6l-.75-2.7c-.084-.3-.3-.339-.478-.081l-.644.931A10.161,10.161,0,0,0,8.486,1.841q-.4.068-.779.166H7.7l-.03.008a10.145,10.145,0,0,0-5.626,3.77c-.012.014-.024.028-.035.043-.047.063-.093.127-.138.192-.074.105-.147.213-.217.322-.009.013-.015.026-.023.039A10.143,10.143,0,0,0,.011,12.365c0,.007,0,.014,0,.021.009.206.026.416.048.622,0,.013,0,.026.006.039.023.207.052.415.088.622a10.154,10.154,0,0,0,2.863,5.506l.011.011,0,0a10.367,10.367,0,0,0,1.311,1.1,10.144,10.144,0,0,0,4.08,1.707.823.823,0,0,0,.29-1.62Z" transform="translate(0 -1.688)" fill="#f8385d"/>
                <path id="Path_787" data-name="Path 787" d="M206.653,83.2a.666.666,0,0,0-.666.666V90.5l6.065,3.135a.666.666,0,0,0,.611-1.183l-5.346-2.764V83.864A.666.666,0,0,0,206.653,83.2Z" transform="translate(-196.925 -79.612)" fill="#f8385d"/>
              </g>
            </g>
          </svg>
