<svg xmlns="http://www.w3.org/2000/svg" width="42.907" height="42.907" viewBox="0 0 42.907 42.907"><g transform="translate(-1 -1)" opacity="0.3"><path d="M22.453,1A21.453,21.453,0,1,0,43.907,22.453,21.453,21.453,0,0,0,22.453,1Zm0,41.523A20.069,20.069,0,1,1,42.523,22.453,20.069,20.069,0,0,1,22.453,42.523Z"/><path d="M40.2,44.057a21.451,21.451,0,0,0-29.879,0,.692.692,0,1,0,.965.992,20.067,20.067,0,0,1,27.949,0,.692.692,0,1,0,.965-.992Z" transform="translate(-2.805 -11.394)"/><path d="M28.3,26.609A8.3,8.3,0,1,0,20,18.3,8.3,8.3,0,0,0,28.3,26.609Zm0-15.225a6.92,6.92,0,1,1-6.92,6.92,6.92,6.92,0,0,1,6.92-6.92Z" transform="translate(-5.851 -2.772)"/></g></svg>