<svg xmlns="http://www.w3.org/2000/svg" width="67.518" height="67.516" viewBox="0 0 67.518 67.516"><g transform="translate(-828.05 -721.99)"><g transform="translate(828.05 721.99)"><path d="M74.429,62.462H69.039A74.75,74.75,0,0,0,62.156,28.7c2.5-2,7.845-1.59,9.868-1.221a1.089,1.089,0,0,0,1.149-1.6C71.786,23.395,69.98,21.923,67.8,21.5a7.29,7.29,0,0,0-2.98.076,5.884,5.884,0,0,1,3.956-1.733,14.016,14.016,0,0,1,3.283.015,1.089,1.089,0,0,0,1.112-1.608C71.747,15.7,70,14.318,67.978,14.141a6.261,6.261,0,0,0-4,1.206,15.614,15.614,0,0,1,.649-1.97,21.41,21.41,0,0,1,1.914-3.655,1.089,1.089,0,0,0-.878-1.706,8.129,8.129,0,0,0-6.439,2.422,8.575,8.575,0,0,0-1.941,3.786,7.227,7.227,0,0,0-2.413-1.993c-1.994-.994-4.351-.915-7,.234A1.089,1.089,0,0,0,48,14.51a8.318,8.318,0,0,1,2.309,1.2,5.16,5.16,0,0,1,2.117,3.166,11.884,11.884,0,0,0-4.4-1.119c-2.473-.113-5.928.662-8.339,4.985a1.088,1.088,0,0,0,1.107,1.608c2.286-.332,8.535-.739,11.609.863a4.357,4.357,0,0,0,1.1.815c.082.044.166.084.25.121a4.376,4.376,0,0,0,.78.261,4.376,4.376,0,0,0,2.2,2.867c3.561,10.585,4.553,16.056,1.54,33.18H53.738V61.373a1.089,1.089,0,0,0,1.089-1.089V57.017a1.089,1.089,0,0,0-1.089-1.089H49.382V41.772h3.267a1.089,1.089,0,0,0,.928-1.658l-6.67-10.89a1.089,1.089,0,0,0-.928-.52H17.8a1.089,1.089,0,0,0-.934.528l-6.534,10.89a1.089,1.089,0,0,0,.934,1.65h3.267V55.928H10.178a1.089,1.089,0,0,0-1.089,1.089v3.267a1.089,1.089,0,0,0,1.089,1.089v1.089H9.089A1.089,1.089,0,0,0,8,63.551v10.89A1.089,1.089,0,0,0,9.089,75.53h65.34a1.089,1.089,0,0,0,1.089-1.089V63.551a1.089,1.089,0,0,0-1.089-1.089Zm-23.268-40a21.222,21.222,0,0,0-4.657-.581c-1.323-.035-2.574.011-3.591.08a6.2,6.2,0,0,1,4.94-2.023,9.631,9.631,0,0,1,3.52.863,4.319,4.319,0,0,0-.222,1.372c0,.1,0,.193.01.289Zm15.37,1.1a4.506,4.506,0,0,1,.859.08,4.771,4.771,0,0,1,2.5,1.4,17.956,17.956,0,0,0-6.768.709c.007-.106.011-.212.011-.32a4.379,4.379,0,0,0-.079-.829A7.3,7.3,0,0,1,66.531,23.562Zm1.265-7.25a3.546,3.546,0,0,1,2.258,1.27,10.189,10.189,0,0,0-6.131,1.84,5.033,5.033,0,0,1-.216-.96C63.978,18.15,65.813,16.135,67.8,16.312ZM60.831,11.9a5.219,5.219,0,0,1,2.792-1.53A17.46,17.46,0,0,0,61.5,17.046a4.328,4.328,0,0,0-1.64-.321h-.31c-.154,0-.3,0-.434.007A7.734,7.734,0,0,1,60.831,11.9Zm-2.084,7.031a4.014,4.014,0,0,1,.794-.034h.323a2.179,2.179,0,0,1,1.853,3.324h0a4.36,4.36,0,0,0-1.962-1.035,4.374,4.374,0,0,0-1.163-2.1h0a.762.762,0,0,1,.158-.158ZM51.307,13.75a4.7,4.7,0,0,1,2.577.423,6.6,6.6,0,0,1,2.932,3.663l-.109.144h0a4.374,4.374,0,0,0-2.271-.034A7.77,7.77,0,0,0,51.307,13.75ZM54.627,24.1a6.059,6.059,0,0,0-.837-.6,2.178,2.178,0,1,1,3.7-2.234,4.373,4.373,0,0,0-2.865,2.83Zm1.97,1.333a2.178,2.178,0,1,1,2.178,2.178A2.178,2.178,0,0,1,56.6,25.437Zm2.593,4.336h0a4.225,4.225,0,0,0,.966-.206,72.441,72.441,0,0,1,6.7,32.9H60.481c1.484-8.52,1.982-14.324,1.661-19.236A50.889,50.889,0,0,0,59.19,29.772Zm-46,9.821,5.227-8.712H45.369L50.7,39.594Zm23.123,3.267H27.6a1.089,1.089,0,0,0-1.089,1.089V55.928h-9.8V41.772H47.2V55.928H37.4V43.95A1.089,1.089,0,0,0,36.314,42.861Zm-1.089,2.178v10.89H33.047V45.038Zm-4.356,0v10.89H28.691V45.038Zm-19.6,13.068H52.649V59.2H11.267ZM51.56,61.373v1.089H50.471V61.373Zm-3.267,0v1.089H42.848V61.373Zm-7.623,0v1.089H39.581V61.373Zm-3.267,0v1.089H26.513V61.373Zm-13.068,0v1.089H23.246V61.373Zm-3.267,0v1.089H15.623V61.373Zm-7.623,0v1.089H12.356V61.373ZM73.34,73.352H10.178V64.64H73.34Z" transform="translate(-8 -8.015)" fill="#7b7b7b"/><circle cx="1.089" cy="1.089" r="1.089" transform="translate(4.356 58.804)" fill="#7b7b7b"/><circle cx="1.089" cy="1.089" r="1.089" transform="translate(17.424 59.893)" fill="#7b7b7b"/><circle cx="1.089" cy="1.089" r="1.089" transform="translate(26.136 62.071)" fill="#7b7b7b"/><circle cx="1.089" cy="1.089" r="1.089" transform="translate(21.78 58.804)" fill="#7b7b7b"/><circle cx="1.089" cy="1.089" r="1.089" transform="translate(34.848 58.804)" fill="#7b7b7b"/><circle cx="1.089" cy="1.089" r="1.089" transform="translate(49.005 57.715)" fill="#7b7b7b"/><circle cx="1.089" cy="1.089" r="1.089" transform="translate(42.471 62.071)" fill="#7b7b7b"/><circle cx="1.089" cy="1.089" r="1.089" transform="translate(8.712 60.982)" fill="#7b7b7b"/><circle cx="1.089" cy="1.089" r="1.089" transform="translate(56.628 58.804)" fill="#7b7b7b"/><circle cx="1.089" cy="1.089" r="1.089" transform="translate(60.984 60.982)" fill="#7b7b7b"/><path d="M86.534,264H81.089A1.089,1.089,0,0,0,80,265.089V273.8a1.089,1.089,0,0,0,1.089,1.089h5.445a1.089,1.089,0,0,0,1.089-1.089v-8.712A1.089,1.089,0,0,0,86.534,264Zm-1.089,8.712H82.178v-6.534h3.267Z" transform="translate(-70.199 -229.154)" fill="#7b7b7b"/><path d="M233.089,274.89h5.445a1.089,1.089,0,0,0,1.089-1.089v-8.712A1.089,1.089,0,0,0,238.534,264h-5.445A1.089,1.089,0,0,0,232,265.089V273.8A1.089,1.089,0,0,0,233.089,274.89Zm1.089-8.712h3.267v6.534h-3.267Z" transform="translate(-201.508 -229.154)" fill="#7b7b7b"/></g></g></svg>