<svg xmlns="http://www.w3.org/2000/svg" width="25.453" height="21.028" viewBox="0 0 25.453 21.028"><g transform="translate(0 -44.508)"><path d="M48.518,93.31h0c-3.3,0-6.077-.155-8.24-.345a1.984,1.984,0,0,1-1.657-2.735,68.522,68.522,0,0,1,5.223-10.11c1.4-2.238,2.748-4.125,3.889-5.609a1.985,1.985,0,0,1,3.149,0c1.136,1.477,2.478,3.353,3.869,5.577a68.571,68.571,0,0,1,5.2,10.047,1.986,1.986,0,0,1-1.66,2.738C55,93.164,51.719,93.31,48.518,93.31Z" transform="translate(-36.556 -27.774)" fill="#dd636e"/><path d="M49.773,73.794a1.8,1.8,0,0,0-1.018.728c-1.047,1.5-2.285,3.4-3.567,5.659a71.874,71.874,0,0,0-4.791,10.2,2.052,2.052,0,0,0,1.189,2.693q-.687-.05-1.308-.1a1.984,1.984,0,0,1-1.657-2.735,68.548,68.548,0,0,1,5.223-10.11c1.4-2.238,2.748-4.125,3.889-5.609a1.982,1.982,0,0,1,2.041-.721Z" transform="translate(-36.556 -27.778)" fill="#da4a54"/><g transform="translate(16.801 44.508)"><path d="M441.838,248.816v-.144a.965.965,0,0,1,.9-.963l1.557-.107a.965.965,0,0,1,1.031.963v.358a.965.965,0,0,1-1.031.963l-1.557-.107A.965.965,0,0,1,441.838,248.816Z" transform="translate(-436.674 -237.503)" fill="#dd636e"/><path d="M413.815,132.231l-.072-.125a.965.965,0,0,1,.3-1.284l1.3-.871a.965.965,0,0,1,1.375.318l.179.31a.965.965,0,0,1-.412,1.35l-1.4.686A.965.965,0,0,1,413.815,132.231Z" transform="translate(-409.852 -125.548)" fill="#dd636e"/><path d="M338.561,47.784l-.125-.072a.965.965,0,0,1-.384-1.26l.686-1.4a.965.965,0,0,1,1.35-.412l.31.179a.965.965,0,0,1,.318,1.375l-.871,1.3A.965.965,0,0,1,338.561,47.784Z" transform="translate(-337.953 -44.508)" fill="#dd636e"/></g><g transform="translate(0 44.508)"><path d="M3.488,248.816v-.144a.965.965,0,0,0-.9-.963L1.031,247.6A.965.965,0,0,0,0,248.565v.358a.965.965,0,0,0,1.031.963l1.557-.107A.965.965,0,0,0,3.488,248.816Z" transform="translate(0 -237.503)" fill="#dd636e"/><path d="M33.1,132.231l.072-.125a.965.965,0,0,0-.3-1.284l-1.3-.871a.965.965,0,0,0-1.375.318l-.179.31a.965.965,0,0,0,.412,1.35l1.4.686A.965.965,0,0,0,33.1,132.231Z" transform="translate(-28.408 -125.548)" fill="#dd636e"/><path d="M117.494,47.784l.125-.072a.965.965,0,0,0,.384-1.26l-.686-1.4a.965.965,0,0,0-1.35-.412l-.31.179a.965.965,0,0,0-.318,1.375l.871,1.3A.965.965,0,0,0,117.494,47.784Z" transform="translate(-109.449 -44.508)" fill="#dd636e"/></g><g transform="translate(11.285 51.222)"><path d="M227.9,179.585a5.554,5.554,0,0,1,1.114,0,.948.948,0,0,1,.847.912q.085,2.315,0,4.631a.948.948,0,0,1-.847.912,5.554,5.554,0,0,1-1.114,0,.948.948,0,0,1-.847-.912q-.085-2.315,0-4.631A.948.948,0,0,1,227.9,179.585Z" transform="translate(-227.012 -179.557)" fill="#fff"/><path d="M227.929,343.773q.53-.025,1.06,0a.948.948,0,0,1,.9.9q.032.712,0,1.425a.948.948,0,0,1-.9.9q-.53.025-1.06,0a.948.948,0,0,1-.9-.9q-.032-.712,0-1.425A.948.948,0,0,1,227.929,343.773Z" transform="translate(-227.013 -335.597)" fill="#fff"/></g></g></svg>